<svg id="Group_26854" data-name="Group 26854" xmlns="http://www.w3.org/2000/svg" width="14.281" height="14.281" viewBox="0 0 14.281 14.281">
  <g id="Group_25961" data-name="Group 25961" transform="translate(0)">
    <path id="Path_24594" data-name="Path 24594" d="M69.04,61.9a7.131,7.131,0,1,0,5.046,2.092A7.14,7.14,0,0,0,69.04,61.9Zm0,13.311a6.178,6.178,0,1,1,4.63-10.268h0a6.1,6.1,0,0,1,1.54,4.079,6.19,6.19,0,0,1-6.171,6.2Z" transform="translate(-61.89 -61.9)" fill="#fcae2e"/>
    <path id="Path_24595" data-name="Path 24595" d="M75.27,69.09A6.18,6.18,0,1,1,73.72,65h0a6.1,6.1,0,0,1,1.55,4.088Z" transform="translate(-61.94 -61.95)" fill="none" stroke="#ff9d00" stroke-width="0.25"/>
    <path id="Path_24596" data-name="Path 24596" d="M73.715,65a3.805,3.805,0,0,0-.428-.352,4.062,4.062,0,0,0-.418-.285l-.19-.114a6.066,6.066,0,0,0-3.109-.846,6.18,6.18,0,0,0-6.18,6.18,6.037,6.037,0,0,0,1.027,3.4,1.531,1.531,0,0,0,.2.285,2.738,2.738,0,0,0,.257.323,6.171,6.171,0,1,1,8.842-8.557Z" transform="translate(-61.934 -61.944)" fill="#ba7e1a"/>
    <path id="Path_24597" data-name="Path 24597" d="M75.214,69.1a6.19,6.19,0,0,1-6.18,6.18A6.127,6.127,0,0,1,64.839,73.6a2.216,2.216,0,0,1-.29-.294,4.4,4.4,0,0,1-.254-.393,6.436,6.436,0,0,0,3.217.939A6.083,6.083,0,0,0,73.5,67.6a5.846,5.846,0,0,0-.959-3.384l.31.153a4.059,4.059,0,0,1,.418.285,5.269,5.269,0,0,1,.428.352h0A6.094,6.094,0,0,1,75.214,69.1Z" transform="translate(-61.894 -61.977)" fill="#fdc35d"/>
    <line id="Line_193" data-name="Line 193" y2="0.951" transform="translate(7.15 0.01)" fill="#fbb040" stroke="#ff9d00" stroke-width="0.25"/>
    <line id="Line_194" data-name="Line 194" y2="0.951" transform="translate(7.15 13.321)" fill="#fbb040" stroke="#ff9d00" stroke-width="0.25"/>
    <line id="Line_195" data-name="Line 195" x1="0.827" y2="0.475" transform="translate(12.503 3.556)" fill="#fbb040" stroke="#ff9d00" stroke-width="0.25"/>
    <line id="Line_196" data-name="Line 196" x1="0.827" y2="0.475" transform="translate(0.97 10.212)" fill="#fbb040" stroke="#ff9d00" stroke-width="0.25"/>
    <line id="Line_197" data-name="Line 197" x2="0.827" y2="0.475" transform="translate(0.912 3.68)" fill="#fbb040" stroke="#ff9d00" stroke-width="0.25"/>
    <line id="Line_198" data-name="Line 198" x2="0.827" y2="0.475" transform="translate(12.446 10.335)" fill="#fbb040" stroke="#ff9d00" stroke-width="0.25"/>
    <line id="Line_199" data-name="Line 199" x1="0.666" y2="0.675" transform="translate(11.523 2.092)" fill="#fbb040" stroke="#ff9d00" stroke-width="0.25"/>
    <line id="Line_200" data-name="Line 200" x1="0.675" y2="0.675" transform="translate(2.101 11.504)" fill="#fbb040" stroke="#ff9d00" stroke-width="0.25"/>
    <line id="Line_201" data-name="Line 201" x2="0.675" y2="0.675" transform="translate(2.111 2.092)" fill="#fbb040" stroke="#ff9d00" stroke-width="0.25"/>
    <line id="Line_202" data-name="Line 202" x2="0.675" y2="0.675" transform="translate(11.523 11.504)" fill="#fbb040" stroke="#ff9d00" stroke-width="0.25"/>
    <line id="Line_203" data-name="Line 203" x2="0.247" y2="0.922" transform="translate(5.305 0.247)" fill="#fbb040" stroke="#ff9d00" stroke-width="0.25"/>
    <line id="Line_204" data-name="Line 204" x2="0.247" y2="0.913" transform="translate(8.747 13.111)" fill="#fbb040" stroke="#ff9d00" stroke-width="0.25"/>
    <line id="Line_205" data-name="Line 205" x1="0.247" y2="0.922" transform="translate(8.747 0.238)" fill="#fbb040" stroke="#ff9d00" stroke-width="0.25"/>
    <line id="Line_206" data-name="Line 206" x1="0.475" y2="0.818" transform="translate(10.231 0.96)" fill="#fbb040" stroke="#ff9d00" stroke-width="0.25"/>
    <line id="Line_207" data-name="Line 207" x2="0.475" y2="0.818" transform="translate(3.613 0.96)" fill="#fbb040" stroke="#ff9d00" stroke-width="0.25"/>
    <line id="Line_208" data-name="Line 208" x1="0.475" y1="0.827" transform="translate(10.221 12.493)" fill="#fbb040" stroke="#ff9d00" stroke-width="0.25"/>
    <line id="Line_209" data-name="Line 209" y1="0.827" x2="0.475" transform="translate(3.603 12.493)" fill="#fbb040" stroke="#ff9d00" stroke-width="0.25"/>
    <line id="Line_210" data-name="Line 210" x1="0.247" y2="0.922" transform="translate(5.305 13.102)" fill="#fbb040" stroke="#ff9d00" stroke-width="0.25"/>
    <line id="Line_211" data-name="Line 211" x1="0.922" y2="0.247" transform="translate(13.121 5.277)" fill="#fbb040" stroke="#ff9d00" stroke-width="0.25"/>
    <line id="Line_212" data-name="Line 212" x1="0.922" y2="0.247" transform="translate(0.257 8.719)" fill="#fbb040" stroke="#ff9d00" stroke-width="0.25"/>
    <line id="Line_213" data-name="Line 213" x2="0.913" y2="0.247" transform="translate(0.257 5.296)" fill="#fbb040" stroke="#ff9d00" stroke-width="0.25"/>
    <line id="Line_214" data-name="Line 214" x2="0.913" y2="0.247" transform="translate(13.121 8.738)" fill="#fbb040" stroke="#ff9d00" stroke-width="0.25"/>
    <line id="Line_215" data-name="Line 215" x1="0.951" transform="translate(13.33 7.141)" fill="#fbb040" stroke="#ff9d00" stroke-width="0.25"/>
    <line id="Line_216" data-name="Line 216" x1="0.951" transform="translate(0.019 7.141)" fill="#fbb040" stroke="#ff9d00" stroke-width="0.25"/>
    <path id="Path_24758" data-name="Path 24758" d="M73.745,67.689a6.19,6.19,0,0,1-6.18,6.18,6,6,0,0,1-3.119-.856,6.085,6.085,0,0,1-1.027-3.4,6.18,6.18,0,0,1,6.18-6.18,6.066,6.066,0,0,1,3.109.846A6.009,6.009,0,0,1,73.745,67.689Z" transform="translate(-61.965 -61.975)" fill="#fcae2e"/>
  </g>
</svg>
