<svg id="Group_27894" data-name="Group 27894" xmlns="http://www.w3.org/2000/svg" width="63.605" height="63.605" viewBox="0 0 63.605 63.605">
  <g id="Path_70557" data-name="Path 70557" transform="translate(0 0)" fill="#fff">
    <path d="M 31.80265617370605 62.10531616210938 C 27.71116638183594 62.10531616210938 23.74285697937012 61.30432510375977 20.00795555114746 59.7245979309082 C 16.39971542358398 58.19843673706055 13.15887641906738 56.01329803466797 10.37544631958008 53.22987747192383 C 7.592016220092773 50.44644546508789 5.406876087188721 47.20559692382812 3.880726099014282 43.59735488891602 C 2.300996065139771 39.86245727539062 1.500006198883057 35.89414596557617 1.500006198883057 31.80265617370605 C 1.500006198883057 27.71116638183594 2.300996065139771 23.74285697937012 3.880726099014282 20.00795555114746 C 5.406876087188721 16.39971542358398 7.592016220092773 13.15887641906738 10.37544631958008 10.37544631958008 C 13.15887641906738 7.592016220092773 16.39971542358398 5.406876087188721 20.00795555114746 3.880726099014282 C 23.74285697937012 2.300996065139771 27.71116638183594 1.500006198883057 31.80265617370605 1.500006198883057 C 35.89414596557617 1.500006198883057 39.86245727539062 2.300996065139771 43.59735488891602 3.880726099014282 C 47.20559692382812 5.406876087188721 50.44644546508789 7.592016220092773 53.22987747192383 10.37544631958008 C 56.01329803466797 13.15887641906738 58.19843673706055 16.39971542358398 59.7245979309082 20.00795555114746 C 61.30432510375977 23.74285697937012 62.10531616210938 27.71116638183594 62.10531616210938 31.80265617370605 C 62.10531616210938 35.89414596557617 61.30432510375977 39.86245727539062 59.7245979309082 43.59735488891602 C 58.19843673706055 47.20559692382812 56.01329803466797 50.44644546508789 53.22986602783203 53.22986602783203 C 50.44644546508789 56.01329803466797 47.20559692382812 58.19843673706055 43.59735488891602 59.7245979309082 C 39.86245727539062 61.30432510375977 35.89414596557617 62.10531616210938 31.80265617370605 62.10531616210938 Z" stroke="none"/>
    <path d="M 31.80265617370605 3 C 27.91300201416016 3 24.14128875732422 3.761123657226562 20.59227752685547 5.262222290039062 C 17.16284561157227 6.712757110595703 14.08225631713867 8.789943695068359 11.43610000610352 11.43610000610352 C 8.789943695068359 14.08225631713867 6.712757110595703 17.16284561157227 5.262222290039062 20.59227752685547 C 3.761123657226562 24.14128875732422 3 27.91300201416016 3 31.80265617370605 C 3 35.69231414794922 3.761123657226562 39.46402359008789 5.262222290039062 43.01303482055664 C 6.712757110595703 46.44246673583984 8.789943695068359 49.52305603027344 11.43610000610352 52.16921234130859 C 14.08225631713867 54.81536865234375 17.16284561157227 56.89255523681641 20.59227752685547 58.34309005737305 C 24.14128875732422 59.84418869018555 27.91300201416016 60.60531234741211 31.80265617370605 60.60531234741211 C 35.69231414794922 60.60531234741211 39.46402359008789 59.84418869018555 43.01303482055664 58.34309005737305 C 46.44246673583984 56.89255523681641 49.52305603027344 54.81536865234375 52.16921234130859 52.16921234130859 C 54.81536865234375 49.52305603027344 56.89255523681641 46.44246673583984 58.34309005737305 43.01303482055664 C 59.84418869018555 39.46402359008789 60.60531234741211 35.69231414794922 60.60531234741211 31.80265617370605 C 60.60531234741211 27.91300201416016 59.84418869018555 24.14128875732422 58.34309005737305 20.59227752685547 C 56.89255523681641 17.16284561157227 54.81536865234375 14.08225631713867 52.16921234130859 11.43610000610352 C 49.52305603027344 8.789943695068359 46.44246673583984 6.712757110595703 43.01303482055664 5.262222290039062 C 39.46402359008789 3.761123657226562 35.69231414794922 3 31.80265617370605 3 M 31.80265617370605 0 C 49.36677932739258 0 63.60531234741211 14.23853302001953 63.60531234741211 31.80265617370605 C 63.60531234741211 49.36677932739258 49.36677932739258 63.60531234741211 31.80265617370605 63.60531234741211 C 14.23853302001953 63.60531234741211 0 49.36677932739258 0 31.80265617370605 C 0 14.23853302001953 14.23853302001953 0 31.80265617370605 0 Z" stroke="none" fill="#20a1ed"/>
  </g>
  <g id="Group_27893" data-name="Group 27893" transform="translate(14.338 19.391)">
    <path id="Path_70558" data-name="Path 70558" d="M52.707,27.62a.6.6,0,0,1,.6.6V49.29a.61.61,0,0,1-.61.61H39.117A3.564,3.564,0,0,1,33,49.9H19.4a.618.618,0,0,1-.61-.61V28.222a.6.6,0,0,1,.6-.6h1.237V47.76a.309.309,0,0,0,.3.3H32.892A3.556,3.556,0,0,0,35.838,49.9H36.2a3.564,3.564,0,0,0,2.938-1.839H51.169a.309.309,0,0,0,.3-.3V27.62Z" transform="translate(-18.79 -25.488)" fill="#1b89ca"/>
    <path id="Path_70559" data-name="Path 70559" d="M36.64,47.671a3.018,3.018,0,0,1,.35-.586A3.377,3.377,0,0,1,39.3,45.726a3.551,3.551,0,0,1,.415,0H50.164V25.22l.472.472.9.911V46.89a.146.146,0,0,1-.155.155H39.48v.041a4.069,4.069,0,0,1-.22.415.887.887,0,0,1-.106.138,3.157,3.157,0,0,1-5.11,0,.887.887,0,0,1-.106-.138,4.071,4.071,0,0,1-.22-.415v-.041H21.765a.155.155,0,0,1-.155-.155V26.6l.9-.911.472-.472V45.7H33.5a2.53,2.53,0,0,1,.35,0,4.037,4.037,0,0,1,2.791,1.945" transform="translate(-19.316 -25.041)" fill="#1b89ca" opacity="0.3"/>
    <path id="Path_70560" data-name="Path 70560" d="M37,27.441V46.849h0a3.4,3.4,0,0,0-2.9-1.627H23.919a.049.049,0,0,1-.049-.049V25.041A.043.043,0,0,1,23.919,25H34.555A2.441,2.441,0,0,1,37,27.441Z" transform="translate(-19.736 -25)" fill="#1b89ca" opacity="0.3"/>
    <line id="Line_247" data-name="Line 247" x1="0.008" transform="translate(17.26 19.408)" fill="none" stroke="#231f20" stroke-width="0.25"/>
    <line id="Line_248" data-name="Line 248" x1="0.008" transform="translate(17.26 17.683)" fill="none" stroke="#231f20" stroke-width="0.25"/>
    <line id="Line_249" data-name="Line 249" x1="0.008" transform="translate(17.26 19.009)" fill="none" stroke="#231f20" stroke-width="0.25"/>
    <path id="Path_70561" data-name="Path 70561" d="M52.54,25H49.79v4.7l1.375-1.074L52.54,29.7Z" transform="translate(-24.564 -25)" fill="#1b89ca"/>
    <path id="Path_70562" data-name="Path 70562" d="M53.134,25V45.279h-10.3A3.45,3.45,0,0,0,40,46.906V44.579h0V27.441A2.441,2.441,0,0,1,42.441,25h4.948v5.818L49.334,29.3l1.945,1.514V25Z" transform="translate(-22.74 -25)" fill="#1b89ca" opacity="0.3"/>
    <rect id="Rectangle_11915" data-name="Rectangle 11915" width="9.195" height="1.839" rx="0.92" transform="translate(5.99 2.344)" fill="#1b89ca"/>
    <rect id="Rectangle_11916" data-name="Rectangle 11916" width="9.195" height="1.839" rx="0.92" transform="translate(5.99 12.1)" fill="#1b89ca"/>
    <rect id="Rectangle_11917" data-name="Rectangle 11917" width="7.202" height="1.839" rx="0.92" transform="translate(5.99 5.599)" fill="#1b89ca"/>
    <rect id="Rectangle_11918" data-name="Rectangle 11918" width="4.069" height="1.839" rx="0.92" transform="translate(5.99 8.845)" fill="#1b89ca"/>
    <rect id="Rectangle_11919" data-name="Rectangle 11919" width="4.069" height="1.839" rx="0.92" transform="translate(11.156 8.845)" fill="#1b89ca"/>
    <path id="Path_70563" data-name="Path 70563" d="M39.98,47.44l.106-.146V28h-.2V47.294Z" transform="translate(-22.72 -25.559)" fill="#1b89ca"/>
  </g>
</svg>
