<svg xmlns="http://www.w3.org/2000/svg" width="63.605" height="63.605" viewBox="0 0 63.605 63.605">
  <g id="Group_27909" data-name="Group 27909" transform="translate(0)">
    <g id="Path_70583" data-name="Path 70583" transform="translate(0 0)" fill="#fff">
      <path d="M 31.80265617370605 62.10531616210938 C 27.71116638183594 62.10531616210938 23.74285697937012 61.30432510375977 20.00795555114746 59.7245979309082 C 16.39971542358398 58.19843673706055 13.15887641906738 56.01329803466797 10.37544631958008 53.22987747192383 C 7.592016220092773 50.44644546508789 5.406876087188721 47.20559692382812 3.880726099014282 43.59735488891602 C 2.300996065139771 39.86245727539062 1.500006198883057 35.89414596557617 1.500006198883057 31.80265617370605 C 1.500006198883057 27.71116638183594 2.300996065139771 23.74285697937012 3.880726099014282 20.00795555114746 C 5.406876087188721 16.39971542358398 7.592016220092773 13.15887641906738 10.37544631958008 10.37544631958008 C 13.15887641906738 7.592016220092773 16.39971542358398 5.406876087188721 20.00795555114746 3.880726099014282 C 23.74285697937012 2.300996065139771 27.71116638183594 1.500006198883057 31.80265617370605 1.500006198883057 C 35.89414596557617 1.500006198883057 39.86245727539062 2.300996065139771 43.59735488891602 3.880726099014282 C 47.20559692382812 5.406876087188721 50.44644546508789 7.592016220092773 53.22987747192383 10.37544631958008 C 56.01329803466797 13.15887641906738 58.19843673706055 16.39971542358398 59.7245979309082 20.00795555114746 C 61.30432510375977 23.74285697937012 62.10531616210938 27.71116638183594 62.10531616210938 31.80265617370605 C 62.10531616210938 35.89414596557617 61.30432510375977 39.86245727539062 59.7245979309082 43.59735488891602 C 58.19843673706055 47.20559692382812 56.01329803466797 50.44644546508789 53.22986602783203 53.22986602783203 C 50.44644546508789 56.01329803466797 47.20559692382812 58.19843673706055 43.59735488891602 59.7245979309082 C 39.86245727539062 61.30432510375977 35.89414596557617 62.10531616210938 31.80265617370605 62.10531616210938 Z" stroke="none"/>
      <path d="M 31.80265617370605 3 C 27.91300201416016 3 24.14128875732422 3.761123657226562 20.59227752685547 5.262222290039062 C 17.16284561157227 6.712757110595703 14.08225631713867 8.789943695068359 11.43610000610352 11.43610000610352 C 8.789943695068359 14.08225631713867 6.712757110595703 17.16284561157227 5.262222290039062 20.59227752685547 C 3.761123657226562 24.14128875732422 3 27.91300201416016 3 31.80265617370605 C 3 35.69231414794922 3.761123657226562 39.46402359008789 5.262222290039062 43.01303482055664 C 6.712757110595703 46.44246673583984 8.789943695068359 49.52305603027344 11.43610000610352 52.16921234130859 C 14.08225631713867 54.81536865234375 17.16284561157227 56.89255523681641 20.59227752685547 58.34309005737305 C 24.14128875732422 59.84418869018555 27.91300201416016 60.60531234741211 31.80265617370605 60.60531234741211 C 35.69231414794922 60.60531234741211 39.46402359008789 59.84418869018555 43.01303482055664 58.34309005737305 C 46.44246673583984 56.89255523681641 49.52305603027344 54.81536865234375 52.16921234130859 52.16921234130859 C 54.81536865234375 49.52305603027344 56.89255523681641 46.44246673583984 58.34309005737305 43.01303482055664 C 59.84418869018555 39.46402359008789 60.60531234741211 35.69231414794922 60.60531234741211 31.80265617370605 C 60.60531234741211 27.91300201416016 59.84418869018555 24.14128875732422 58.34309005737305 20.59227752685547 C 56.89255523681641 17.16284561157227 54.81536865234375 14.08225631713867 52.16921234130859 11.43610000610352 C 49.52305603027344 8.789943695068359 46.44246673583984 6.712757110595703 43.01303482055664 5.262222290039062 C 39.46402359008789 3.761123657226562 35.69231414794922 3 31.80265617370605 3 M 31.80265617370605 0 C 49.36677932739258 0 63.60531234741211 14.23853302001953 63.60531234741211 31.80265617370605 C 63.60531234741211 49.36677932739258 49.36677932739258 63.60531234741211 31.80265617370605 63.60531234741211 C 14.23853302001953 63.60531234741211 0 49.36677932739258 0 31.80265617370605 C 0 14.23853302001953 14.23853302001953 0 31.80265617370605 0 Z" stroke="none" fill="#20a1ed"/>
    </g>
    <g id="Group_27908" data-name="Group 27908" transform="translate(20.634 16.668)">
      <g id="Group_27906" data-name="Group 27906" transform="translate(0 2.779)">
        <path id="Path_70584" data-name="Path 70584" d="M34.65,26.154v-.369A2.144,2.144,0,0,1,34.8,25h7.474a2.133,2.133,0,0,1,.147.781v.376a.277.277,0,0,1-.273.273H34.923A.272.272,0,0,1,34.65,26.154Z" transform="translate(-27.538 -24.997)" fill="#1b89ca" stroke="rgba(0,0,0,0)" stroke-width="1"/>
        <path id="Path_70585" data-name="Path 70585" d="M47.111,27.208V30.6a.719.719,0,0,0-.125.133L45.1,33.989V28.675a1.1,1.1,0,0,0-1.106-1.106H28.258a1.1,1.1,0,0,0-1.106,1.106V48.6a1.1,1.1,0,0,0,1.106,1.106h8.026l-.531,1.983H27.211A2.214,2.214,0,0,1,25,49.474V27.208A2.208,2.208,0,0,1,27.211,25h4.658a2.56,2.56,0,0,0-.125.789v.369a.642.642,0,0,0,.641.641h7.223a.642.642,0,0,0,.641-.641v-.376A2.513,2.513,0,0,0,40.124,25H44.9A2.208,2.208,0,0,1,47.111,27.208Z" transform="translate(-25 -24.997)" fill="#1b89ca" stroke="rgba(0,0,0,0)" stroke-width="1"/>
        <path id="Path_70586" data-name="Path 70586" d="M51.666,40.727V53.61a2.214,2.214,0,0,1-2.211,2.218H42.32l1.474-1.474.295-.509h4.459a1.1,1.1,0,0,0,1.106-1.106V44.206Z" transform="translate(-29.555 -29.133)" fill="#1b89ca" stroke="rgba(0,0,0,0)" stroke-width="1"/>
      </g>
      <path id="Path_70587" data-name="Path 70587" d="M45.633,30.125v5.587L37.544,49.643l-.242.765H29.57a1.059,1.059,0,0,1-1.055-1.066V30.125a1.059,1.059,0,0,1,1.055-1.066H44.579A1.059,1.059,0,0,1,45.633,30.125Z" transform="translate(-25.924 -23.287)" fill="#1b89ca" stroke="rgba(0,0,0,0)" stroke-width="1" opacity="0.3"/>
      <path id="Path_70588" data-name="Path 70588" d="M49.951,46.221v7.674a1.023,1.023,0,0,1-1.023,1.026H44.936Z" transform="translate(-30.243 -27.8)" fill="#1b89ca" stroke="rgba(0,0,0,0)" stroke-width="1" opacity="0.3"/>
      <g id="Group_27907" data-name="Group 27907" transform="translate(3.269 7.21)">
        <rect id="Rectangle_11938" data-name="Rectangle 11938" width="15.596" height="1.665" rx="0.832" transform="translate(0)" fill="#1b89ca" stroke="rgba(0,0,0,0)" stroke-width="1"/>
        <rect id="Rectangle_11939" data-name="Rectangle 11939" width="8.326" height="1.665" rx="0.832" transform="translate(0 8.834)" fill="#1b89ca" stroke="rgba(0,0,0,0)" stroke-width="1"/>
        <rect id="Rectangle_11940" data-name="Rectangle 11940" width="13.314" height="1.665" rx="0.832" transform="translate(0 2.945)" fill="#1b89ca" stroke="rgba(0,0,0,0)" stroke-width="1"/>
        <rect id="Rectangle_11941" data-name="Rectangle 11941" width="7.065" height="1.665" rx="0.832" transform="translate(0 5.89)" fill="#1b89ca" stroke="rgba(0,0,0,0)" stroke-width="1"/>
        <rect id="Rectangle_11942" data-name="Rectangle 11942" width="4.988" height="1.665" rx="0.832" transform="translate(8.326 5.843)" fill="#1b89ca" stroke="rgba(0,0,0,0)" stroke-width="1"/>
        <rect id="Rectangle_11943" data-name="Rectangle 11943" width="4.988" height="1.665" rx="0.832" transform="translate(0 11.779)" fill="#1b89ca" stroke="rgba(0,0,0,0)" stroke-width="1"/>
      </g>
      <path id="Path_70589" data-name="Path 70589" d="M42.418,24.787v.376a.277.277,0,0,1-.273.273H34.923a.272.272,0,0,1-.273-.273v-.369a2.144,2.144,0,0,1,.147-.789,2.185,2.185,0,0,1,.9-1.091,2.2,2.2,0,0,1,2.145-1.688h1.386a2.206,2.206,0,0,1,2.145,1.688,2.217,2.217,0,0,1,.9,1.091A2.133,2.133,0,0,1,42.418,24.787Z" transform="translate(-27.538 -21.227)" fill="#1b89ca" stroke="rgba(0,0,0,0)" stroke-width="1"/>
      <path id="Path_70590" data-name="Path 70590" d="M42.418,24.787v.376a.277.277,0,0,1-.273.273H34.923a.272.272,0,0,1-.273-.273v-.369a2.144,2.144,0,0,1,.147-.789,2.185,2.185,0,0,1,.9-1.091,2.2,2.2,0,0,1,2.145-1.688h1.386a2.206,2.206,0,0,1,2.145,1.688,2.217,2.217,0,0,1,.9,1.091A2.133,2.133,0,0,1,42.418,24.787Z" transform="translate(-27.538 -21.227)" fill="#1b89ca" stroke="rgba(0,0,0,0)" stroke-width="1"/>
      <path id="Path_70591" data-name="Path 70591" d="M52.925,34.426l-10.22,17.7-2.064,2.161-.06.066-.116.123a.361.361,0,0,1-.561-.346l.066-.23.839-2.868.756-1.309,9.464-16.391a1.094,1.094,0,0,1,1.894,1.094Z" transform="translate(-28.919 -24.266)" fill="#1b89ca" stroke="rgba(0,0,0,0)" stroke-width="1"/>
    </g>
  </g>
</svg>
