<svg id="Group_77407" data-name="Group 77407" xmlns="http://www.w3.org/2000/svg" width="267" height="192" viewBox="0 0 267 192">
  <rect id="Rectangle_12258" data-name="Rectangle 12258" width="267" height="192" rx="12" fill="#ffcf00"/>
  <g id="physics" transform="translate(62 39.198)">
    <g id="Group_28444" data-name="Group 28444" transform="translate(0 0)">
      <g id="Group_28434" data-name="Group 28434" transform="translate(2.521 2.864)">
        <g id="Group_28431" data-name="Group 28431" transform="translate(1.128 1.131)">
          <path id="Path_71824" data-name="Path 71824" d="M140.873,67.952l10.36,76.533a3.292,3.292,0,0,1-2.826,3.7L27.161,164.6a3.283,3.283,0,0,1-2.778-.949,3.24,3.24,0,0,1-.925-1.871L13.1,85.249a3.3,3.3,0,0,1,2.82-3.7L137.164,65.133A3.292,3.292,0,0,1,140.873,67.952Z" transform="translate(-13.068 -65.102)" fill="#6280ff"/>
          <g id="Group_28426" data-name="Group 28426" transform="translate(84.721 40.212)">
            <path id="Path_71825" data-name="Path 71825" d="M414.978,215.024a3.042,3.042,0,1,1,1.875-3.872A3.042,3.042,0,0,1,414.978,215.024Z" transform="translate(-384.554 -209.107)" fill="#ffcf00"/>
            <path id="Path_71826" data-name="Path 71826" d="M450.782,320.389a3.042,3.042,0,1,1,.6-4.26A3.042,3.042,0,0,1,450.782,320.389Z" transform="translate(-409.76 -285.371)" fill="#ffcf00"/>
            <path id="Path_71827" data-name="Path 71827" d="M321.162,324.8a3.042,3.042,0,1,1,.89-4.209A3.042,3.042,0,0,1,321.162,324.8Z" transform="translate(-316.46 -288.465)" fill="#ffcf00"/>
          </g>
          <g id="Group_28427" data-name="Group 28427" transform="translate(11.315 13.723)" opacity="0.25">
            <path id="Path_71828" data-name="Path 71828" d="M171.551,114.246l8.888,65.66a3.292,3.292,0,0,1-2.826,3.7L56.366,200.023a3.283,3.283,0,0,1-2.778-.949,34.11,34.11,0,0,1,11.184-7.355c9.065-3.709,19.144-4.333,28.972-5.166a545.17,545.17,0,0,0,62.438-8.981c3.445-.7,7.073-1.517,9.643-3.756,4.2-3.635,4.146-9.581,3.623-14.735-.984-9.7-2.539-19.4-1.895-29.16A39.82,39.82,0,0,1,171.551,114.246Z" transform="translate(-53.588 -114.246)" fill="#000e3f"/>
          </g>
          <path id="Path_71831" data-name="Path 71831" d="M103.732,121.742c-2.221.635-4.463,1.115-6.712,1.541s-4.508.779-6.771,1.105l-3.4.424c-1.138.111-2.272.253-3.415.335-2.28.2-4.568.336-6.877.32a.781.781,0,0,1-.207-1.533c2.221-.629,4.464-1.1,6.714-1.52,1.123-.224,2.254-.39,3.381-.585l3.393-.5c2.268-.287,4.538-.557,6.821-.734s4.57-.321,6.88-.3a.735.735,0,0,1,.2,1.441Z" transform="translate(-58.267 -104.885)" fill="#fff" opacity="0.5"/>
          <g id="Group_28429" data-name="Group 28429" transform="translate(32.859 52.66)">
            <path id="Path_71832" data-name="Path 71832" d="M396.781,276.8a4.857,4.857,0,1,1,.953-6.8A4.857,4.857,0,0,1,396.781,276.8Z" transform="translate(-316.881 -264.052)" fill="#fc09b2"/>
            <path id="Path_71833" data-name="Path 71833" d="M140.955,263.568a5.89,5.89,0,1,1-.331-8.323A5.89,5.89,0,0,1,140.955,263.568Z" transform="translate(-130.738 -253.683)" fill="#fc09b2"/>
          </g>
          <g id="Group_28430" data-name="Group 28430" transform="translate(35.049 54.29)">
            <path id="Path_71834" data-name="Path 71834" d="M402.718,274.247a1.084,1.084,0,0,1-1.5,1.345,2.953,2.953,0,0,1-.78-.483,15.3,15.3,0,0,0-1.88-1.192.6.6,0,0,1-.2-.83C398.887,272.224,401.96,272.2,402.718,274.247Z" transform="translate(-325.754 -268.9)" fill="#fff"/>
            <path id="Path_71835" data-name="Path 71835" d="M140.609,259.769c2.386-.961,3.058,1.146,1.935,1.852-1.015.64-1.545.424-2.276,1.419-.158.215-.516,1.241-1.136.925a.728.728,0,0,1-.287-.326C138.066,262.168,139.12,260.368,140.609,259.769Z" transform="translate(-138.581 -259.522)" fill="#fff"/>
          </g>
        </g>
        <g id="Group_28432" data-name="Group 28432">
          <path id="Path_71836" data-name="Path 71836" d="M149.439,141.413,139.079,64.88a4.418,4.418,0,0,0-4.976-3.789L12.856,77.5a4.421,4.421,0,0,0-3.789,4.975l10.36,76.533A4.418,4.418,0,0,0,24.4,162.8L145.65,146.388A4.427,4.427,0,0,0,149.439,141.413Zm-3.94,3.857L24.251,161.683a3.291,3.291,0,0,1-3.706-2.822L10.185,82.328a3.294,3.294,0,0,1,2.822-3.706L134.254,62.209a3.355,3.355,0,0,1,.446-.03,3.3,3.3,0,0,1,3.26,2.852l10.36,76.533A3.294,3.294,0,0,1,145.5,145.27Z" transform="translate(-9.027 -61.051)" fill="#000e3f"/>
          <path id="Path_71840" data-name="Path 71840" d="M373.11,300.886l-1.146.591a.733.733,0,1,0,.672,1.3l1.146-.591a.733.733,0,1,0-.672-1.3Z" transform="translate(-270.33 -233.854)" fill="#000e3f"/>
          <path id="Path_71841" data-name="Path 71841" d="M344.384,315.693l-1.146.59a.733.733,0,1,0,.672,1.3l1.146-.591a.733.733,0,0,0-.672-1.3Z" transform="translate(-249.626 -244.527)" fill="#000e3f"/>
          <path id="Path_71842" data-name="Path 71842" d="M358.746,308.289l-1.146.591a.733.733,0,1,0,.672,1.3l1.146-.591a.733.733,0,1,0-.672-1.3Z" transform="translate(-259.977 -239.19)" fill="#000e3f"/>
          <path id="Path_71843" data-name="Path 71843" d="M413.726,234.956a.732.732,0,0,0-.883.545l-.3,1.255a.733.733,0,0,0,.545.883.75.75,0,0,0,.169.02.734.734,0,0,0,.713-.565l.3-1.255A.733.733,0,0,0,413.726,234.956Z" transform="translate(-299.851 -186.379)" fill="#000e3f"/>
          <path id="Path_71844" data-name="Path 71844" d="M410,250.679a.731.731,0,0,0-.883.545l-.3,1.255a.734.734,0,0,0,.545.883.751.751,0,0,0,.169.02.733.733,0,0,0,.713-.565l.3-1.255A.734.734,0,0,0,410,250.679Z" transform="translate(-297.169 -197.712)" fill="#000e3f"/>
          <path id="Path_71845" data-name="Path 71845" d="M436.885,307.558a.733.733,0,1,0-.9,1.157l1.017.792a.733.733,0,1,0,.9-1.157Z" transform="translate(-316.555 -238.611)" fill="#000e3f"/>
          <path id="Path_71846" data-name="Path 71846" d="M424.137,297.629a.733.733,0,0,0-.9,1.157l1.017.792a.733.733,0,1,0,.9-1.157Z" transform="translate(-307.367 -231.454)" fill="#000e3f"/>
          <g id="Group_77358" data-name="Group 77358" transform="translate(73.849 15.119)">
            <path id="Path_71847" data-name="Path 71847" d="M294.5,189.263c-1.4.6-2.736.976-4.1,1.508l-.022-.01a8.775,8.775,0,0,1-.757-1.944c.151-.256,1.244-.484,1.815-.9a17.741,17.741,0,0,0-.873-2.148l-.006-.016c-.644.233-1.29.5-1.93.7l-.022-.01a9.545,9.545,0,0,1-.725-1.814l.01-.021.047-.018a34.573,34.573,0,0,0,4-1.773l-.006-.016a15.951,15.951,0,0,0-.86-2.208c-.036-.094-4.038,1.537-6.4,2.6,1.184,3.639,2.722,7.034,4.126,10.641,2.072-.609,4.266-1.643,6.386-2.45a6.806,6.806,0,0,0-.668-2.087Z" transform="translate(-284.667 -167.324)" fill="#000e3f"/>
            <path id="Path_71848" data-name="Path 71848" d="M333.128,195.446a16.3,16.3,0,0,1-.912-2.206l-5.893,2.295c.048.124.62,1.729.783,2.148.311-.121,5.7-2.11,6.007-2.231Z" transform="translate(-314.69 -176.446)" fill="#000e3f"/>
            <path id="Path_71849" data-name="Path 71849" d="M328.641,183.92a16.3,16.3,0,0,1-.912-2.206l-5.893,2.295c.048.124.62,1.729.783,2.148.311-.121,5.7-2.11,6.007-2.231Z" transform="translate(-311.456 -168.139)" fill="#000e3f"/>
            <path id="Path_71850" data-name="Path 71850" d="M353.62,156.118c-.653.254-1.964.889-2.277.958-.186.626.169,2.781.027,2.782a.144.144,0,0,1-.112-.01c-.515-.355-1.382-1.664-1.941-1.949l-.016.006a12.573,12.573,0,0,0-2.084.9c3.226,8.468,3.964,10.364,4.151,10.615.028.024.049.034.064.028a15.7,15.7,0,0,0,2.16-.894,42.11,42.11,0,0,1-2.342-5.875c0-.038,1.489,1.891,1.806,1.785a26.241,26.241,0,0,0,.1-2.651c.88,1.663,1.8,4.221,2.572,5.964a19.567,19.567,0,0,1,2.059-.783l-1.884-4.979C355.232,159.985,354.317,158.139,353.62,156.118Z" transform="translate(-329.751 -149.69)" fill="#000e3f"/>
            <path id="Path_71851" data-name="Path 71851" d="M390.122,151.606a16.671,16.671,0,0,0-2.121.718c.092.555.443,1.045.4,1.618a1.134,1.134,0,0,1-.893.974c-.673.065-1.145-.5-1.443-1.085a32.825,32.825,0,0,1-1.664-4.457.648.648,0,0,1,.015-.238c.1-.238.435-.4.681-.552,1.195-.518,1.448.869,1.894,1.644a6.033,6.033,0,0,0,2.294-.82c-.125-3.265-4.1-4.727-6.578-2.686a2.49,2.49,0,0,0-.655.666,3.45,3.45,0,0,0-.328,1.687,2.29,2.29,0,0,0,.235,1.107c1.26,3.377,1.9,4.972,2.559,6.435.849,1.675,2.936,1.471,4.335.694A3.651,3.651,0,0,0,390.122,151.606Z" transform="translate(-354.618 -142.241)" fill="#000e3f"/>
            <path id="Path_71852" data-name="Path 71852" d="M418.6,137.8c-.789.307-1.416.6-2.233.891-.118-.006-.106-.429-.105-.565.342-1.052,1.924-1.659,1.511-3.044-.087-.249-.229-.559-.337-.811a1.955,1.955,0,0,0-1.479-1.169c-.756-.008-2.21.578-2.447,1.392a2.662,2.662,0,0,0,.362,2.273l.007.018.01,0a6.219,6.219,0,0,0,1.325-.568l.01,0-.007-.018c-.143-.446-.346-1.13.243-1.36.591-.146,1.027.729.66,1.238a14.021,14.021,0,0,0-1.393,2.142,5.5,5.5,0,0,0,.559,2.374.036.036,0,0,0,.019.023l.409-.159,3.431-1.388c.027-.01.037-.014.033-.023a1.576,1.576,0,0,1-.174-.393A2.445,2.445,0,0,0,418.6,137.8Z" transform="translate(-377.444 -133.1)" fill="#000e3f"/>
          </g>
          <path id="Path_71853" data-name="Path 71853" d="M105.546,204.093c-.742-.631-1.547-1.256-2.4-1.872.662-.821,1.271-1.637,1.819-2.443,3.249-4.778,4.057-8.759,2.275-11.21-.746-1.026-2.315-2.25-5.55-2.25h0a26.973,26.973,0,0,0-9.754,2.358c-.47-1.2-.969-2.34-1.5-3.393-2.556-5.092-5.456-7.783-8.388-7.783h0a4.6,4.6,0,0,0-.617.042c-3,.406-5.321,3.742-6.528,9.393a39.462,39.462,0,0,0-.639,4.132,38.711,38.711,0,0,0-4.629-.3c-7.063,0-9.419,2.322-10.152,4.27-1.066,2.836.771,6.459,5.174,10.2.743.631,1.547,1.256,2.4,1.871-.662.821-1.271,1.637-1.819,2.443-3.249,4.778-4.057,8.759-2.275,11.21.746,1.026,2.315,2.25,5.551,2.25a26.968,26.968,0,0,0,9.754-2.358c.47,1.2.969,2.34,1.5,3.393,2.556,5.092,5.456,7.783,8.389,7.783a4.6,4.6,0,0,0,.617-.042c3-.406,5.321-3.742,6.528-9.393a39.3,39.3,0,0,0,.639-4.132,38.724,38.724,0,0,0,4.629.3c7.063,0,9.419-2.322,10.152-4.27C111.785,211.458,109.948,207.835,105.546,204.093Zm-3.859-16.646c2.139,0,3.757.574,4.638,1.785,1.822,2.506.074,7.175-4.108,12.341a58.27,58.27,0,0,0-7.735-4.385,60.193,60.193,0,0,0-2.15-7.453A26.007,26.007,0,0,1,101.687,187.446Zm-6.764,29.538a58.606,58.606,0,0,1-6.964-1.487q1.678-1.085,3.351-2.3c1.3-.942,2.541-1.913,3.733-2.9A58.268,58.268,0,0,1,94.922,216.985Zm-4.277-4.7c-1.381,1-2.765,1.931-4.138,2.791-1.55-.464-3.129-.992-4.725-1.592-1.768-.665-3.465-1.381-5.079-2.133-.373-1.742-.694-3.556-.947-5.428s-.428-3.706-.531-5.484c1.356-1.154,2.8-2.3,4.329-3.407,1.381-1,2.765-1.931,4.138-2.791,1.55.464,3.129.992,4.725,1.592,1.768.665,3.465,1.381,5.079,2.133.373,1.742.694,3.556.947,5.428s.428,3.706.531,5.484C93.619,210.037,92.173,211.179,90.645,212.289Zm-5.414,3.571a58.625,58.625,0,0,1-6.322,3.29,58.05,58.05,0,0,1-1.892-6.41c1.412.637,2.871,1.242,4.37,1.805C82.674,215.029,83.956,215.459,85.231,215.86ZM74.64,206.08c.214,1.584.479,3.143.785,4.663a56.576,56.576,0,0,1-6.714-3.861,56.631,56.631,0,0,1,5.45-5.51C74.27,202.919,74.424,204.491,74.64,206.08Zm.639-13.737a58.577,58.577,0,0,1,6.964,1.487q-1.678,1.085-3.351,2.3c-1.3.942-2.541,1.913-3.733,2.9A58.145,58.145,0,0,1,75.279,192.342Zm9.691,1.125a58.614,58.614,0,0,1,6.322-3.289,58.1,58.1,0,0,1,1.892,6.41q-2.118-.955-4.37-1.805C87.527,194.3,86.245,193.868,84.97,193.467Zm10.592,9.781c-.214-1.584-.479-3.143-.785-4.663a56.6,56.6,0,0,1,6.714,3.86,56.64,56.64,0,0,1-5.45,5.51C95.931,206.408,95.777,204.837,95.562,203.247ZM81.58,178.66a3.472,3.472,0,0,1,.466-.031c3.1,0,6.356,4.1,8.847,10.489a60.769,60.769,0,0,0-7.369,3.9,60.085,60.085,0,0,0-8.144-1.795C76.118,184.052,78.348,179.1,81.58,178.66ZM60.538,195.43c.889-2.365,4.284-3.539,9.1-3.539a37.437,37.437,0,0,1,4.536.3,59.8,59.8,0,0,0-.092,7.752,58.3,58.3,0,0,0-6.3,6.291C62.374,202.366,59.448,198.33,60.538,195.43Zm7.977,26.451c-2.139,0-3.757-.574-4.638-1.785-1.822-2.506-.074-7.175,4.108-12.341a58.294,58.294,0,0,0,7.735,4.385,60.139,60.139,0,0,0,2.15,7.453A26,26,0,0,1,68.515,221.881Zm20.106,8.787a3.468,3.468,0,0,1-.465.031c-3.1,0-6.355-4.1-8.847-10.489a60.757,60.757,0,0,0,7.369-3.9,60.089,60.089,0,0,0,8.144,1.795C94.084,225.275,91.853,230.23,88.621,230.668Zm21.043-16.77c-.889,2.365-4.284,3.539-9.1,3.539a37.431,37.431,0,0,1-4.536-.3,59.8,59.8,0,0,0,.092-7.752,58.324,58.324,0,0,0,6.3-6.291C107.828,206.961,110.754,211,109.663,213.9Z" transform="translate(-45.179 -144.982)" fill="#000e3f"/>
        </g>
        <g id="Group_28433" data-name="Group 28433" transform="translate(15.151 35.281)">
          <path id="Path_71854" data-name="Path 71854" d="M214.281,310.927a3.592,3.592,0,1,1,4.859-1.479A3.592,3.592,0,0,1,214.281,310.927Z" transform="translate(-170.745 -271.558)" fill="#fff"/>
          <path id="Path_71855" data-name="Path 71855" d="M65.186,297.517a3.592,3.592,0,1,1,4.859-1.479A3.592,3.592,0,0,1,65.186,297.517Z" transform="translate(-63.284 -261.893)" fill="#fff"/>
          <path id="Path_71856" data-name="Path 71856" d="M152.159,194.156a3.592,3.592,0,1,1,4.859-1.479A3.592,3.592,0,0,1,152.159,194.156Z" transform="translate(-125.97 -187.395)" fill="#fff"/>
        </g>
      </g>
      <g id="Group_28441" data-name="Group 28441" transform="translate(0 0)">
        <g id="Group_28437" data-name="Group 28437" transform="translate(113.207)">
          <g id="Group_28436" data-name="Group 28436" transform="translate(1.128 1.127)">
            <path id="Path_71857" data-name="Path 71857" d="M428.8,71.6a.11.11,0,0,0-.047.135l.521,1.381a.111.111,0,0,1-.171.132L409.49,58.317a.112.112,0,0,1,.078-.2l1.317.124.156.013a.116.116,0,0,0,.116-.153l-.6-1.582a.112.112,0,0,1,.116-.153l1.684.157a.116.116,0,0,0,.116-.153l-.524-1.384a.112.112,0,0,1,.174-.129l19.609,14.933a.111.111,0,0,1,.021.157.47.47,0,0,1-.075.039.09.09,0,0,1-.028,0l-1.47-.135a.112.112,0,0,0-.116.153c.132.367.246.66.338.9l.226.594c0,.006,0,.011,0,.011l.03.078a.084.084,0,0,1,0,.074v.006a.107.107,0,0,1-.116.073c-.47-.036-.829-.079-1.1-.1l-.488-.045c-.006,0-.009,0-.011,0l-.084-.009A.08.08,0,0,0,428.8,71.6Z" transform="translate(-409.444 -54.831)" fill="#ffcf00"/>
            <g id="Group_28435" data-name="Group 28435" transform="translate(0 3.283)" opacity="0.5">
              <path id="Path_71858" data-name="Path 71858" d="M428.8,80.077c-.066.02-.075.059-.047.135l.521,1.381a.111.111,0,0,1-.171.132L409.49,66.791a.112.112,0,0,1,.078-.2l1.317.124a16.394,16.394,0,0,1,3.2,1.62A73.281,73.281,0,0,1,421.9,74.37c1.253,1.06,2.962,2.794,4.765,2.684.512-.032.946-.325,1.454-.405a3.759,3.759,0,0,1,1.567.053l2.051,1.562a.111.111,0,0,1,.021.157.468.468,0,0,1-.075.039.089.089,0,0,1-.028,0l-1.47-.135a.112.112,0,0,0-.116.153c.132.367.246.66.338.9.108.273.186.468.226.594v.011a.52.52,0,0,1,.029.153v.006c0,.058-.04.08-.116.073-.47-.036-.829-.079-1.1-.1-.217-.025-.376-.04-.488-.045-.005,0-.009,0-.011,0A.649.649,0,0,0,428.8,80.077Z" transform="translate(-409.444 -66.589)" fill="#fd8a02"/>
            </g>
          </g>
          <path id="Path_71859" data-name="Path 71859" d="M409.145,51.924a.111.111,0,0,1,.067.023l19.609,14.933a.112.112,0,0,1-.065.2h-.013l-1.473-.135h-.012a.113.113,0,0,0-.1.153l.6,1.58a.112.112,0,0,1-.107.153h-.01l-1.682-.156h-.012a.113.113,0,0,0-.1.153l.523,1.382a.112.112,0,0,1-.173.129L406.577,55.407a.112.112,0,0,1,.067-.2h.011l1.318.123.154.014h.01a.112.112,0,0,0,.106-.153l-.6-1.58a.113.113,0,0,1,.1-.153h.013l1.682.156h.01a.112.112,0,0,0,.106-.153l-.522-1.384a.112.112,0,0,1,.1-.153m0-1.128a1.24,1.24,0,0,0-1.2,1.546l-.076-.007c-.035,0-.081-.006-.116-.006a1.24,1.24,0,0,0-1.164,1.665l.032.084a1.24,1.24,0,0,0-.723,2.226L425.5,71.238a1.24,1.24,0,0,0,1.954-1.29l.074.007c.035,0,.079.005.114.005a1.24,1.24,0,0,0,1.158-1.692l-.022-.059a1.24,1.24,0,0,0,.727-2.226L409.9,51.05a1.247,1.247,0,0,0-.751-.254Z" transform="translate(-405.404 -50.796)" fill="#000e3f"/>
        </g>
        <g id="Group_28440" data-name="Group 28440" transform="translate(0 13.641)">
          <g id="Group_28439" data-name="Group 28439" transform="translate(1.128 1.128)">
            <path id="Path_71860" data-name="Path 71860" d="M7.377,124.307a.111.111,0,0,1,.082.118l-.135,1.47a.111.111,0,0,0,.2.081l14.933-19.609a.112.112,0,0,0-.129-.174l-1.237.47-.147.054a.116.116,0,0,1-.153-.116l.157-1.684a.112.112,0,0,0-.153-.116l-1.582.6a.116.116,0,0,1-.153-.116l.137-1.473a.112.112,0,0,0-.2-.078L4.063,123.341a.111.111,0,0,0,.021.157.45.45,0,0,0,.082.017.1.1,0,0,0,.028,0l1.381-.521a.112.112,0,0,1,.153.116c-.03.389-.062.7-.088.953l-.06.633,0,.011-.009.084a.085.085,0,0,0,.021.072v.006a.107.107,0,0,0,.131.039c.443-.16.779-.3,1.031-.391l.459-.173c.006,0,.008,0,.011,0l.078-.03A.077.077,0,0,1,7.377,124.307Z" transform="translate(-4.04 -103.686)" fill="#ffcf00"/>
            <g id="Group_28438" data-name="Group 28438" transform="translate(0 2.5)" opacity="0.5">
              <path id="Path_71861" data-name="Path 71861" d="M7.377,130.759c.069,0,.088.037.082.118l-.135,1.47a.111.111,0,0,0,.2.081l14.933-19.609a.112.112,0,0,0-.129-.174l-1.237.47a16.384,16.384,0,0,0-2.657,2.413,73.294,73.294,0,0,0-5.922,7.9c-.926,1.355-2.113,3.481-3.88,3.854-.5.105-1-.062-1.509,0a3.766,3.766,0,0,0-1.5.468l-1.562,2.051a.112.112,0,0,0,.021.157.452.452,0,0,0,.082.017.1.1,0,0,0,.028,0l1.381-.521a.112.112,0,0,1,.153.116c-.03.389-.062.7-.088.953-.032.292-.055.5-.06.633l0,.011a.523.523,0,0,0,.013.155v.006c.019.054.06.066.131.039.443-.16.779-.3,1.031-.391.2-.082.352-.139.459-.173.006,0,.008,0,.011,0A.652.652,0,0,1,7.377,130.759Z" transform="translate(-4.04 -112.638)" fill="#fd8a02"/>
            </g>
          </g>
          <path id="Path_71862" data-name="Path 71862" d="M16.174,100.775a.11.11,0,0,1,.112.123l-.135,1.473a.112.112,0,0,0,.112.123.117.117,0,0,0,.04-.007l1.58-.6a.117.117,0,0,1,.041-.008.113.113,0,0,1,.111.124l-.156,1.682a.112.112,0,0,0,.112.123.117.117,0,0,0,.04-.007l.144-.054,1.238-.469a.121.121,0,0,1,.042-.008.112.112,0,0,1,.087.18L4.612,123.064a.109.109,0,0,1-.089.045.111.111,0,0,1-.112-.123l.137-1.472a.113.113,0,0,0-.111-.124.115.115,0,0,0-.041.008l-1.58.6a.117.117,0,0,1-.041.007.112.112,0,0,1-.112-.123l.156-1.682a.113.113,0,0,0-.111-.124.11.11,0,0,0-.041.008l-1.384.522a.116.116,0,0,1-.042.008.113.113,0,0,1-.087-.181L16.085,100.82a.115.115,0,0,1,.09-.044m0-1.128h0a1.23,1.23,0,0,0-.986.489L.255,119.746A1.24,1.24,0,0,0,1.547,121.7l-.007.075a1.242,1.242,0,0,0,1.663,1.28l.082-.031a1.238,1.238,0,0,0,1.24,1.214,1.231,1.231,0,0,0,.986-.489l14.934-19.61a1.239,1.239,0,0,0-1.289-1.954l.007-.073a1.256,1.256,0,0,0-.324-.957,1.238,1.238,0,0,0-1.364-.312l-.056.021a1.244,1.244,0,0,0-1.243-1.216Z" transform="translate(0 -99.647)" fill="#000e3f"/>
        </g>
      </g>
      <g id="Group_28443" data-name="Group 28443" transform="translate(60.053 51.596)">
        <g id="Group_28442" data-name="Group 28442" transform="translate(1.129 1.128)">
          <path id="Path_71863" data-name="Path 71863" d="M219.226,295.993a1.443,1.443,0,0,0,2.632,1.181c.017-.039-.371.861,13.122-30.535,3.607-8.39,5.142-12.147,11-25.783a.9.9,0,0,0-1.639-.72l-15.837,35.176Z" transform="translate(-219.1 -239.607)" fill="#ffcf00"/>
          <path id="Path_71864" data-name="Path 71864" d="M219.226,365.767a1.443,1.443,0,0,0,2.632,1.181c.017-.039-.371.861,13.122-30.534a74.174,74.174,0,0,1-6.474,8.673Z" transform="translate(-219.1 -309.38)" fill="#fd8a02" opacity="0.5"/>
        </g>
        <path id="Path_71865" data-name="Path 71865" d="M242.247,236.7a.9.9,0,0,1,.822,1.249c-5.861,13.636-7.4,17.394-11,25.783-13.493,31.4-13.1,30.5-13.122,30.534a1.443,1.443,0,0,1-2.632-1.181l9.28-20.681,15.837-35.176a.9.9,0,0,1,.817-.529m0-1.128a2.028,2.028,0,0,0-1.847,1.194l-15.837,35.176-9.281,20.682a2.571,2.571,0,0,0,4.691,2.1l.1-.226c.377-.878,2.375-5.528,13.032-30.326,1.6-3.72,2.774-6.488,4.134-9.693,1.691-3.984,3.606-8.5,6.869-16.091a2.022,2.022,0,0,0-1.858-2.822Z" transform="translate(-215.056 -235.568)" fill="#000e3f"/>
      </g>
    </g>
    <g id="Group_28445" data-name="Group 28445" transform="translate(79.185 93.329)">
      <path id="Path_71866" data-name="Path 71866" d="M389.4,420.817l3.117.3a.607.607,0,0,0,.523-.214l2.014-2.4a.607.607,0,0,1,1.058.259l.679,3.057a.607.607,0,0,0,.365.431l2.9,1.174a.607.607,0,0,1,.081,1.086l-2.7,1.59a.607.607,0,0,0-.3.481l-.22,3.124a.607.607,0,0,1-1.008.413l-2.346-2.074a.607.607,0,0,0-.549-.134l-3.038.756a.607.607,0,0,1-.7-.831l1.248-2.872a.606.606,0,0,0-.042-.563l-1.658-2.656A.607.607,0,0,1,389.4,420.817Z" transform="translate(-359.365 -408.996)" fill="#fd8a02"/>
      <path id="Path_71867" data-name="Path 71867" d="M478.349,385.3l1.3,2.415a.533.533,0,0,0,.411.276l2.729.3a.532.532,0,0,1,.328.9l-1.894,1.986a.533.533,0,0,0-.136.476l.562,2.686a.532.532,0,0,1-.751.589l-2.474-1.188a.533.533,0,0,0-.5.018l-2.381,1.365a.532.532,0,0,1-.792-.532l.365-2.72a.533.533,0,0,0-.17-.465l-2.034-1.843a.532.532,0,0,1,.262-.918l2.7-.493a.532.532,0,0,0,.39-.305l1.125-2.5A.532.532,0,0,1,478.349,385.3Z" transform="translate(-419.918 -385.017)" fill="#fd8a02"/>
      <path id="Path_71868" data-name="Path 71868" d="M283.872,427.01l2.245-.844a.465.465,0,0,0,.288-.324l.577-2.328a.465.465,0,0,1,.815-.178l1.5,1.874a.465.465,0,0,0,.4.174l2.392-.171a.465.465,0,0,1,.421.72l-1.32,2a.465.465,0,0,0-.043.431l.9,2.223a.465.465,0,0,1-.555.623l-2.312-.636a.465.465,0,0,0-.423.093l-1.835,1.544a.465.465,0,0,1-.764-.334l-.11-2.4a.465.465,0,0,0-.219-.374l-2.036-1.268A.466.466,0,0,1,283.872,427.01Z" transform="translate(-283.571 -412.51)" fill="#fd8a02"/>
    </g>
  </g>
</svg>
