<svg id="Group_77408" data-name="Group 77408" xmlns="http://www.w3.org/2000/svg" width="267" height="193" viewBox="0 0 267 193">
  <rect id="Rectangle_12258" data-name="Rectangle 12258" width="267" height="193" rx="12" fill="#e36352"/>
  <g id="computer-engineer" transform="translate(67.001 29.953)">
    <g id="Group_28499" data-name="Group 28499">
      <path id="Path_71898" data-name="Path 71898" d="M66.907,133.814a66.882,66.882,0,0,1-54.671-28.333,2.834,2.834,0,0,1-2.5-2.811v-.99a66.943,66.943,0,0,1,0-69.545V22.963a2.834,2.834,0,0,1,2.831-2.831h6.5A66.91,66.91,0,1,1,66.907,133.814Z" fill="#fff"/>
    </g>
    <g id="Group_28618" data-name="Group 28618" transform="translate(2.765 2.623)">
      <g id="Group_28501" data-name="Group 28501">
        <g id="Group_28500" data-name="Group 28500">
          <path id="Path_71899" data-name="Path 71899" d="M139.248,74.369a64.117,64.117,0,0,1-4.627,24L77.876,123.2,15.207,98.368a64.341,64.341,0,1,1,124.041-24Z" transform="translate(-10.58 -10.035)" fill="#6e72ff"/>
        </g>
      </g>
      <g id="Group_28617" data-name="Group 28617" transform="translate(4.627 5.336)">
        <g id="Group_28503" data-name="Group 28503" transform="translate(0 82.997)">
          <g id="Group_28502" data-name="Group 28502">
            <path id="Path_71900" data-name="Path 71900" d="M147.7,348.014a64.359,64.359,0,0,1-119.414,0Z" transform="translate(-28.283 -348.014)" fill="#f8bdff"/>
          </g>
        </g>
        <g id="Group_28599" data-name="Group 28599" transform="translate(5.112 14.796)">
          <g id="Group_28570" data-name="Group 28570">
            <g id="Group_28508" data-name="Group 28508">
              <g id="Group_28505" data-name="Group 28505">
                <g id="Group_28504" data-name="Group 28504">
                  <path id="Path_71901" data-name="Path 71901" d="M73.042,167.288H48.1a.256.256,0,0,1-.257-.257V87.323a.258.258,0,0,1,.257-.257H73.042a.164.164,0,0,0-.165.165l9.067,35.512-9.067,44.384A.164.164,0,0,0,73.042,167.288Z" transform="translate(-47.844 -87.066)" fill="#412945"/>
                </g>
              </g>
              <g id="Group_28507" data-name="Group 28507" transform="translate(25.034)">
                <g id="Group_28506" data-name="Group 28506">
                  <path id="Path_71902" data-name="Path 71902" d="M159.234,167.289H143.793a.164.164,0,0,1-.164-.164V87.23a.164.164,0,0,1,.164-.164h15.441a.164.164,0,0,1,.164.164v79.9A.164.164,0,0,1,159.234,167.289Z" transform="translate(-143.629 -87.066)" fill="#e36352"/>
                </g>
              </g>
            </g>
            <g id="Group_28569" data-name="Group 28569" transform="translate(2.36 6.655)">
              <g id="Group_28511" data-name="Group 28511">
                <g id="Group_28510" data-name="Group 28510">
                  <g id="Group_28509" data-name="Group 28509">
                    <path id="Path_71903" data-name="Path 71903" d="M65.017,129.172H56.872V112.528h8.145Zm-7.68-.466h7.214V112.994H57.338Z" transform="translate(-56.872 -112.528)" fill="#f7ede5"/>
                  </g>
                </g>
              </g>
              <g id="Group_28514" data-name="Group 28514" transform="translate(0.016 17.727)">
                <g id="Group_28513" data-name="Group 28513">
                  <g id="Group_28512" data-name="Group 28512">
                    <path id="Path_71904" data-name="Path 71904" d="M77.748,186.066H56.934v-5.712H77.748Zm-20.381-.434H77.314v-4.846H57.367Z" transform="translate(-56.934 -180.354)" fill="#f7ede5"/>
                  </g>
                </g>
              </g>
              <g id="Group_28530" data-name="Group 28530" transform="translate(0.233 27.395)">
                <g id="Group_28517" data-name="Group 28517">
                  <g id="Group_28516" data-name="Group 28516">
                    <g id="Group_28515" data-name="Group 28515">
                      <rect id="Rectangle_12272" data-name="Rectangle 12272" width="9.083" height="2.938" fill="#f7ede5"/>
                    </g>
                  </g>
                </g>
                <g id="Group_28520" data-name="Group 28520" transform="translate(0 5.109)">
                  <g id="Group_28519" data-name="Group 28519">
                    <g id="Group_28518" data-name="Group 28518">
                      <rect id="Rectangle_12273" data-name="Rectangle 12273" width="9.083" height="2.937" fill="#f7ede5"/>
                    </g>
                  </g>
                </g>
                <g id="Group_28523" data-name="Group 28523" transform="translate(0 10.217)">
                  <g id="Group_28522" data-name="Group 28522">
                    <g id="Group_28521" data-name="Group 28521">
                      <rect id="Rectangle_12274" data-name="Rectangle 12274" width="9.083" height="2.938" fill="#f7ede5"/>
                    </g>
                  </g>
                </g>
                <g id="Group_28526" data-name="Group 28526" transform="translate(0 15.326)">
                  <g id="Group_28525" data-name="Group 28525">
                    <g id="Group_28524" data-name="Group 28524">
                      <rect id="Rectangle_12275" data-name="Rectangle 12275" width="9.083" height="2.938" fill="#f7ede5"/>
                    </g>
                  </g>
                </g>
                <g id="Group_28529" data-name="Group 28529" transform="translate(0 20.435)">
                  <g id="Group_28528" data-name="Group 28528">
                    <g id="Group_28527" data-name="Group 28527">
                      <rect id="Rectangle_12276" data-name="Rectangle 12276" width="9.083" height="2.938" fill="#f7ede5"/>
                    </g>
                  </g>
                </g>
              </g>
              <g id="Group_28533" data-name="Group 28533" transform="translate(12.11)">
                <g id="Group_28532" data-name="Group 28532">
                  <g id="Group_28531" data-name="Group 28531">
                    <path id="Path_71905" data-name="Path 71905" d="M111.353,129.172h-8.145V112.528h8.145Zm-7.68-.466h7.214V112.994h-7.214Z" transform="translate(-103.208 -112.528)" fill="#f7ede5"/>
                  </g>
                </g>
              </g>
              <g id="Group_28536" data-name="Group 28536" transform="translate(0.565 57.281)">
                <g id="Group_28535" data-name="Group 28535">
                  <g id="Group_28534" data-name="Group 28534">
                    <rect id="Rectangle_12277" data-name="Rectangle 12277" width="2.252" height="9.579" fill="#f7ede5"/>
                  </g>
                </g>
              </g>
              <g id="Group_28539" data-name="Group 28539" transform="translate(5.07 57.281)">
                <g id="Group_28538" data-name="Group 28538">
                  <g id="Group_28537" data-name="Group 28537">
                    <rect id="Rectangle_12278" data-name="Rectangle 12278" width="2.252" height="9.579" fill="#f7ede5"/>
                  </g>
                </g>
              </g>
              <g id="Group_28542" data-name="Group 28542" transform="translate(9.574 57.281)">
                <g id="Group_28541" data-name="Group 28541">
                  <g id="Group_28540" data-name="Group 28540">
                    <rect id="Rectangle_12279" data-name="Rectangle 12279" width="2.252" height="9.579" fill="#f7ede5"/>
                  </g>
                </g>
              </g>
              <g id="Group_28545" data-name="Group 28545" transform="translate(14.078 57.281)">
                <g id="Group_28544" data-name="Group 28544">
                  <g id="Group_28543" data-name="Group 28543">
                    <rect id="Rectangle_12280" data-name="Rectangle 12280" width="2.252" height="9.579" fill="#f7ede5"/>
                  </g>
                </g>
              </g>
              <g id="Group_28548" data-name="Group 28548" transform="translate(18.583 57.281)">
                <g id="Group_28547" data-name="Group 28547">
                  <g id="Group_28546" data-name="Group 28546">
                    <rect id="Rectangle_12281" data-name="Rectangle 12281" width="2.252" height="9.579" fill="#f7ede5"/>
                  </g>
                </g>
              </g>
              <g id="Group_28558" data-name="Group 28558" transform="translate(11.641 28.033)">
                <g id="Group_28551" data-name="Group 28551">
                  <g id="Group_28550" data-name="Group 28550">
                    <g id="Group_28549" data-name="Group 28549">
                      <ellipse id="Ellipse_1240" data-name="Ellipse 1240" cx="1.883" cy="2.171" rx="1.883" ry="2.171" fill="#f7ede5"/>
                    </g>
                  </g>
                </g>
                <g id="Group_28554" data-name="Group 28554" transform="translate(0 8.301)">
                  <g id="Group_28553" data-name="Group 28553">
                    <g id="Group_28552" data-name="Group 28552">
                      <ellipse id="Ellipse_1241" data-name="Ellipse 1241" cx="1.883" cy="2.171" rx="1.883" ry="2.171" fill="#f7ede5"/>
                    </g>
                  </g>
                </g>
                <g id="Group_28557" data-name="Group 28557" transform="translate(0 16.603)">
                  <g id="Group_28556" data-name="Group 28556">
                    <g id="Group_28555" data-name="Group 28555">
                      <ellipse id="Ellipse_1242" data-name="Ellipse 1242" cx="1.883" cy="2.171" rx="1.883" ry="2.171" fill="#f7ede5"/>
                    </g>
                  </g>
                </g>
              </g>
              <g id="Group_28568" data-name="Group 28568" transform="translate(16.958 28.033)">
                <g id="Group_28561" data-name="Group 28561">
                  <g id="Group_28560" data-name="Group 28560">
                    <g id="Group_28559" data-name="Group 28559">
                      <ellipse id="Ellipse_1243" data-name="Ellipse 1243" cx="1.883" cy="2.171" rx="1.883" ry="2.171" fill="#f7ede5"/>
                    </g>
                  </g>
                </g>
                <g id="Group_28564" data-name="Group 28564" transform="translate(0 8.301)">
                  <g id="Group_28563" data-name="Group 28563">
                    <g id="Group_28562" data-name="Group 28562">
                      <ellipse id="Ellipse_1244" data-name="Ellipse 1244" cx="1.883" cy="2.171" rx="1.883" ry="2.171" fill="#f7ede5"/>
                    </g>
                  </g>
                </g>
                <g id="Group_28567" data-name="Group 28567" transform="translate(0 16.603)">
                  <g id="Group_28566" data-name="Group 28566">
                    <g id="Group_28565" data-name="Group 28565">
                      <ellipse id="Ellipse_1245" data-name="Ellipse 1245" cx="1.883" cy="2.171" rx="1.883" ry="2.171" fill="#f7ede5"/>
                    </g>
                  </g>
                </g>
              </g>
            </g>
          </g>
          <g id="Group_28577" data-name="Group 28577" transform="translate(34.609 16.951)">
            <g id="Group_28572" data-name="Group 28572" transform="translate(0.611 0)">
              <g id="Group_28571" data-name="Group 28571">
                <path id="Path_71906" data-name="Path 71906" d="M259.951,153.838v44.07a1.914,1.914,0,0,1-1.914,1.914H227.122l-2.723,8.413h13.68v1.175H214.251l3.369-9.588H184.56L182.6,175.017l1.956-23.093h73.476A1.914,1.914,0,0,1,259.951,153.838Z" transform="translate(-182.604 -151.924)" fill="#412945"/>
              </g>
            </g>
            <g id="Group_28574" data-name="Group 28574" transform="translate(6.14 2.505)">
              <g id="Group_28573" data-name="Group 28573">
                <path id="Path_71907" data-name="Path 71907" d="M270.684,203.662H205.443a1.685,1.685,0,0,1-1.685-1.685V163.192a1.685,1.685,0,0,1,1.685-1.685h65.241a1.685,1.685,0,0,1,1.685,1.685v38.786A1.685,1.685,0,0,1,270.684,203.662Z" transform="translate(-203.758 -161.507)" fill="#f7ede5"/>
              </g>
            </g>
            <g id="Group_28576" data-name="Group 28576">
              <g id="Group_28575" data-name="Group 28575">
                <path id="Path_71908" data-name="Path 71908" d="M182.832,151.924v47.9h-.653a1.914,1.914,0,0,1-1.914-1.914v-44.07a1.914,1.914,0,0,1,1.914-1.914Z" transform="translate(-180.265 -151.924)" fill="#f8bdff"/>
              </g>
            </g>
          </g>
          <g id="Group_28593" data-name="Group 28593" transform="translate(45.337 1.906)">
            <g id="Group_28582" data-name="Group 28582">
              <g id="Group_28579" data-name="Group 28579" transform="translate(0 2.083)">
                <g id="Group_28578" data-name="Group 28578">
                  <path id="Path_71909" data-name="Path 71909" d="M277.093,104.976V134.74h-55.78V104.976l31.217-2.647Z" transform="translate(-221.313 -102.329)" fill="#fff"/>
                </g>
              </g>
              <g id="Group_28581" data-name="Group 28581">
                <g id="Group_28580" data-name="Group 28580">
                  <rect id="Rectangle_12282" data-name="Rectangle 12282" width="55.78" height="4.73" fill="#b5e1e8"/>
                </g>
              </g>
            </g>
            <g id="Group_28587" data-name="Group 28587" transform="translate(1.51 1.576)">
              <g id="Group_28584" data-name="Group 28584">
                <g id="Group_28583" data-name="Group 28583">
                  <path id="Path_71910" data-name="Path 71910" d="M229.192,101.44a1.051,1.051,0,1,1-1.051-1.051A1.051,1.051,0,0,1,229.192,101.44Z" transform="translate(-227.09 -100.389)" fill="#412945"/>
                </g>
              </g>
              <g id="Group_28586" data-name="Group 28586" transform="translate(3.811)">
                <g id="Group_28585" data-name="Group 28585">
                  <path id="Path_71911" data-name="Path 71911" d="M243.773,101.44a1.051,1.051,0,1,1-1.051-1.051A1.051,1.051,0,0,1,243.773,101.44Z" transform="translate(-241.671 -100.389)" fill="#412945"/>
                </g>
              </g>
            </g>
            <g id="Group_28592" data-name="Group 28592" transform="translate(14.039 6.923)">
              <g id="Group_28589" data-name="Group 28589" transform="translate(15.587)">
                <g id="Group_28588" data-name="Group 28588">
                  <path id="Path_71912" data-name="Path 71912" d="M336.061,143.643a.958.958,0,0,1-.67-1.643l9.739-9.536-10.174-9.971a.958.958,0,0,1,1.341-1.368l10.873,10.655a.958.958,0,0,1,0,1.369l-10.438,10.221A.954.954,0,0,1,336.061,143.643Z" transform="translate(-334.668 -120.85)" fill="#412945"/>
                </g>
              </g>
              <g id="Group_28591" data-name="Group 28591" transform="translate(0 0)">
                <g id="Group_28590" data-name="Group 28590">
                  <path id="Path_71913" data-name="Path 71913" d="M286.425,143.643a.955.955,0,0,1-.67-.274l-10.438-10.221a.958.958,0,0,1,0-1.369l10.873-10.655a.958.958,0,1,1,1.341,1.368l-10.174,9.971L287.1,142a.958.958,0,0,1-.67,1.643Z" transform="translate(-275.029 -120.851)" fill="#412945"/>
                </g>
              </g>
            </g>
          </g>
          <g id="Group_28598" data-name="Group 28598" transform="translate(34.838 76.149)">
            <g id="Group_28595" data-name="Group 28595">
              <g id="Group_28594" data-name="Group 28594">
                <path id="Path_71914" data-name="Path 71914" d="M230.035,391.562v-8.051h5.858a9.4,9.4,0,0,0-17.087.862H198.5a9.4,9.4,0,0,0-17.087-.862h5.858v8.051h-6.128a9.4,9.4,0,0,0,16.644,1.151h21.734a9.4,9.4,0,0,0,16.644-1.151Z" transform="translate(-181.142 -378.428)" fill="#412945"/>
              </g>
            </g>
            <g id="Group_28597" data-name="Group 28597" transform="translate(16.964 7.802)">
              <g id="Group_28596" data-name="Group 28596">
                <path id="Path_71915" data-name="Path 71915" d="M266.455,412.386H246.306a.258.258,0,0,1-.257-.257v-3.592a.257.257,0,0,1,.257-.257h20.149a.257.257,0,0,1,.257.257v3.592A.257.257,0,0,1,266.455,412.386Zm-19.892-.515H266.2v-3.077H246.564Z" transform="translate(-246.049 -408.28)" fill="#f8bdff"/>
              </g>
            </g>
          </g>
        </g>
        <g id="Group_28616" data-name="Group 28616" transform="translate(20.205)">
          <g id="Group_28603" data-name="Group 28603" transform="translate(18.475)">
            <g id="Group_28602" data-name="Group 28602">
              <g id="Group_28601" data-name="Group 28601">
                <g id="Group_28600" data-name="Group 28600">
                  <path id="Path_71916" data-name="Path 71916" d="M184.416,34.963l4.054,1.415a.268.268,0,0,1,.006.5l-4.066,1.531a.267.267,0,0,0-.157.157l-1.541,4.091a.268.268,0,0,1-.5,0l-1.541-4.091a.269.269,0,0,0-.157-.157l-4.057-1.528a.268.268,0,0,1,.008-.5l4.171-1.417a.269.269,0,0,0,.168-.168l1.413-4.161a.268.268,0,0,1,.506-.006l1.529,4.173A.27.27,0,0,0,184.416,34.963Z" transform="translate(-176.282 -30.453)" fill="#f7ede5"/>
                </g>
              </g>
            </g>
          </g>
          <g id="Group_28607" data-name="Group 28607" transform="translate(61.576 8.146)">
            <g id="Group_28606" data-name="Group 28606">
              <g id="Group_28605" data-name="Group 28605">
                <g id="Group_28604" data-name="Group 28604">
                  <path id="Path_71917" data-name="Path 71917" d="M349.329,66.133l4.054,1.415a.268.268,0,0,1,.006.5l-4.066,1.531a.268.268,0,0,0-.156.157l-1.541,4.091a.268.268,0,0,1-.5,0l-1.541-4.091a.268.268,0,0,0-.156-.157l-4.057-1.528a.268.268,0,0,1,.008-.5l4.171-1.417a.269.269,0,0,0,.168-.168L347.13,61.8a.268.268,0,0,1,.506-.006l1.529,4.173A.268.268,0,0,0,349.329,66.133Z" transform="translate(-341.195 -61.623)" fill="#f7ede5"/>
                </g>
              </g>
            </g>
          </g>
          <g id="Group_28611" data-name="Group 28611" transform="translate(80.946 82.129)">
            <g id="Group_28610" data-name="Group 28610">
              <g id="Group_28609" data-name="Group 28609">
                <g id="Group_28608" data-name="Group 28608">
                  <path id="Path_71918" data-name="Path 71918" d="M423.44,349.2l4.054,1.415a.268.268,0,0,1,.006.5l-4.066,1.531a.268.268,0,0,0-.157.156l-1.541,4.091a.268.268,0,0,1-.5,0l-1.541-4.091a.268.268,0,0,0-.157-.156l-4.057-1.528a.268.268,0,0,1,.008-.505l4.171-1.417a.269.269,0,0,0,.168-.168l1.413-4.161a.268.268,0,0,1,.506-.006l1.529,4.173A.269.269,0,0,0,423.44,349.2Z" transform="translate(-415.306 -344.693)" fill="#f7ede5"/>
                </g>
              </g>
            </g>
          </g>
          <g id="Group_28615" data-name="Group 28615" transform="translate(0 92.115)">
            <g id="Group_28614" data-name="Group 28614">
              <g id="Group_28613" data-name="Group 28613">
                <g id="Group_28612" data-name="Group 28612">
                  <path id="Path_71919" data-name="Path 71919" d="M113.726,387.414l4.054,1.415a.268.268,0,0,1,.006.5l-4.066,1.531a.268.268,0,0,0-.157.156l-1.541,4.092a.268.268,0,0,1-.5,0l-1.541-4.092a.268.268,0,0,0-.157-.156l-4.057-1.528a.268.268,0,0,1,.008-.5l4.171-1.417a.269.269,0,0,0,.168-.168l1.413-4.161a.268.268,0,0,1,.506-.006l1.529,4.173A.267.267,0,0,0,113.726,387.414Z" transform="translate(-105.592 -382.904)" fill="#f7ede5"/>
                </g>
              </g>
            </g>
          </g>
        </g>
      </g>
    </g>
  </g>
</svg>
