<svg id="Group_77409" data-name="Group 77409" xmlns="http://www.w3.org/2000/svg" width="267" height="193" viewBox="0 0 267 193">
  <rect id="Rectangle_12258" data-name="Rectangle 12258" width="267" height="193" rx="12" fill="#ffb46a"/>
  <g id="science" transform="translate(73.999 28.716)">
    <path id="Path_71869" data-name="Path 71869" d="M77.211,135.567a3.965,3.965,0,0,1-2.118-.608l-8.953-2.538a3.66,3.66,0,0,1-2.4-2.166l-8.356-20.942a3.664,3.664,0,0,1-5.8-2.5c-.366-2.924-2.767-5.322-6.117-6.109a3.661,3.661,0,0,1,.281-7.182,5.2,5.2,0,0,0,3.374-2.014,6.7,6.7,0,0,0,.654-1.281L30.526,47.023a3.679,3.679,0,0,1,1.362-4.463c.03-.02,11.446-7.073,11.446-7.073a8.893,8.893,0,0,0-3.613-1.759A3.66,3.66,0,0,1,40,26.546a5.2,5.2,0,0,0,3.374-2.014,12.533,12.533,0,0,0,1.531-4.8,3.676,3.676,0,0,1,3.172-3.275l.044-.005a3.685,3.685,0,0,1,.435-.026h.088A3.654,3.654,0,0,1,52.159,19.4a12.5,12.5,0,0,0,1.975,4.624A5.2,5.2,0,0,0,57.682,25.7a3.658,3.658,0,0,1,1.1.238L99.9.546a3.66,3.66,0,0,1,5.263,1.615l2.361,5.256a32.234,32.234,0,0,1,28.671,56.937,9.926,9.926,0,0,0,1.592,3.282,5.2,5.2,0,0,0,3.548,1.684,3.661,3.661,0,0,1,.957,7.124,8.982,8.982,0,0,0-2.993,1.7l8.6,28.3a3.66,3.66,0,0,1-2.26,4.508L79.549,134.8a3.945,3.945,0,0,1-2.338.765Z" transform="translate(-30.25 0)" fill="#fff"/>
    <g id="Group_28494" data-name="Group 28494" transform="translate(3.736 3.995)">
      <g id="Group_28493" data-name="Group 28493">
        <g id="Group_28447" data-name="Group 28447" transform="translate(55.091 5.815)">
          <g id="Group_28446" data-name="Group 28446">
            <ellipse id="Ellipse_1238" data-name="Ellipse 1238" cx="28.571" cy="28.571" rx="28.571" ry="28.571" fill="#fea8fe"/>
          </g>
        </g>
        <g id="Group_28488" data-name="Group 28488">
          <g id="Group_28448" data-name="Group 28448">
            <path id="Path_71870" data-name="Path 71870" d="M44.359,57.043l67.917-41.954L123.283,39.6,57.236,83.421V81.344Z" transform="translate(-44.359 -15.089)"/>
          </g>
          <g id="Group_28449" data-name="Group 28449" transform="translate(1.661 7.268)">
            <path id="Path_71871" data-name="Path 71871" d="M131.222,74.735l-65.428,32.6-8.3-15.808L52.176,81.416l-.213-.4-.519-.988-.238-.464-.574-1.086,6.931-4.106L111.277,42.54l1.58,1.062.561.378,1.7,1.141.567.378,1.837,1.238.573.384,1.086.732h.006l.574.384,1.9,1.275.58.384,3.575,2.4Z" transform="translate(-50.633 -42.54)" fill="#ffeae2"/>
          </g>
          <g id="Group_28460" data-name="Group 28460" transform="translate(2.186 8.33)">
            <g id="Group_28451" data-name="Group 28451">
              <g id="Group_28450" data-name="Group 28450">
                <path id="Path_71872" data-name="Path 71872" d="M114.875,46.927l-61.8,36a.276.276,0,0,1-.153.043H52.9a.3.3,0,0,1-.244-.153.288.288,0,0,1,.006-.311.213.213,0,0,1,.1-.1l61.548-35.856Z" transform="translate(-52.614 -46.549)"/>
              </g>
            </g>
            <g id="Group_28453" data-name="Group 28453" transform="translate(0.782 1.519)">
              <g id="Group_28452" data-name="Group 28452">
                <path id="Path_71873" data-name="Path 71873" d="M119.316,52.664,56.023,88.551a.29.29,0,0,1-.153.043.131.131,0,0,1-.067-.012.3.3,0,0,1-.2-.146.292.292,0,0,1-.012-.256.275.275,0,0,1,.128-.159l63.03-35.734Z" transform="translate(-55.566 -52.286)"/>
              </g>
            </g>
            <g id="Group_28455" data-name="Group 28455" transform="translate(2.337 3.136)">
              <g id="Group_28454" data-name="Group 28454">
                <path id="Path_71874" data-name="Path 71874" d="M126.045,58.776,61.892,93.821a.308.308,0,0,1-.415-.122.311.311,0,0,1,.122-.415l63.872-34.892Z" transform="translate(-61.441 -58.392)"/>
              </g>
            </g>
            <g id="Group_28457" data-name="Group 28457" transform="translate(3.894 4.252)">
              <g id="Group_28456" data-name="Group 28456">
                <path id="Path_71875" data-name="Path 71875" d="M132.034,62.993,67.771,97.544a.284.284,0,0,1-.14.037.3.3,0,0,1-.146-.574l63.97-34.4h.006Z" transform="translate(-67.321 -62.609)"/>
              </g>
            </g>
            <g id="Group_28459" data-name="Group 28459" transform="translate(4.675 5.912)">
              <g id="Group_28458" data-name="Group 28458">
                <path id="Path_71876" data-name="Path 71876" d="M136.68,69.26,70.715,102.938a.363.363,0,0,1-.14.03.3.3,0,0,1-.268-.165.31.31,0,0,1,.128-.415L136.1,68.876Z" transform="translate(-70.271 -68.876)"/>
              </g>
            </g>
          </g>
          <g id="Group_28461" data-name="Group 28461" transform="translate(1.661 39.098)">
            <path id="Path_71877" data-name="Path 71877" d="M63.646,172.676a9.115,9.115,0,0,1-6.156,7.236l-6.858-13.056,6.931-4.106a9.116,9.116,0,0,1,3.16,1.885A9.5,9.5,0,0,1,63.646,172.676Z" transform="translate(-50.633 -162.75)" fill="#ffb46a"/>
          </g>
          <g id="Group_28462" data-name="Group 28462" transform="translate(0.002 12.979)">
            <path id="Path_71878" data-name="Path 71878" d="M154.855,154.976,87.671,179.222,77.6,176.367,73.064,165l.611-3.111-3.515-4.161-16.516-41.4.059-5.161-4.232-5.3L44.365,93.081l10.8,4.57,72.072-33.544Z" transform="translate(-44.365 -64.107)" fill="#5290e3"/>
          </g>
          <g id="Group_28487" data-name="Group 28487" transform="translate(5.108 27)">
            <g id="Group_28467" data-name="Group 28467" transform="translate(0 19.218)">
              <g id="Group_28465" data-name="Group 28465" transform="translate(0 8.528)">
                <g id="Group_28463" data-name="Group 28463">
                  <path id="Path_71879" data-name="Path 71879" d="M77.848,234.934,67.824,232.31l-4.173-10.457,9.841,2.16Z" transform="translate(-63.651 -221.853)" fill="#fea8fe"/>
                </g>
                <g id="Group_28464" data-name="Group 28464" transform="translate(20.689 51.853)">
                  <path id="Path_71880" data-name="Path 71880" d="M154.1,426.009l-9.408-1.049-2.9-7.272,9.28.72Z" transform="translate(-141.787 -417.687)" fill="#fea8fe"/>
                </g>
              </g>
              <g id="Group_28466" data-name="Group 28466" transform="translate(5.387)">
                <path id="Path_71881" data-name="Path 71881" d="M116.808,271.671a.305.305,0,0,1-.283-.192L84.018,190.061a.305.305,0,0,1,.567-.226l32.507,81.418a.305.305,0,0,1-.283.418Z" transform="translate(-83.997 -189.643)"/>
              </g>
            </g>
            <g id="Group_28476" data-name="Group 28476" transform="translate(45.468 36.916)">
              <g id="Group_28473" data-name="Group 28473">
                <g id="Group_28471" data-name="Group 28471">
                  <g id="Group_28468" data-name="Group 28468" transform="translate(10.403)">
                    <path id="Path_71882" data-name="Path 71882" d="M282.534,298.863c-4.416,0-7.875-9.308-7.875-21.19s3.459-21.19,7.875-21.19,7.875,9.308,7.875,21.19S286.95,298.863,282.534,298.863Zm0-41.78c-4.012,0-7.276,9.237-7.276,20.591s3.264,20.59,7.276,20.59,7.276-9.237,7.276-20.59S286.546,257.082,282.534,257.082Z" transform="translate(-274.659 -256.483)"/>
                  </g>
                  <g id="Group_28469" data-name="Group 28469" transform="translate(2.261 5.167)">
                    <path id="Path_71883" data-name="Path 71883" d="M247.866,308.037A3.977,3.977,0,0,1,244.944,307c-1.527-1.526-1.357-4.529.479-8.453a45.272,45.272,0,0,1,8.936-12.1c8.4-8.4,17.429-12.536,20.552-9.415s-1.013,12.151-9.415,20.552h0a45.256,45.256,0,0,1-12.1,8.936A13.663,13.663,0,0,1,247.866,308.037Zm24.085-31.46c-4,0-10.835,3.965-17.168,10.3a44.649,44.649,0,0,0-8.816,11.929c-1.7,3.626-1.914,6.459-.6,7.775s4.15,1.1,7.776-.6a44.644,44.644,0,0,0,11.929-8.817h0c8.028-8.028,12.251-16.867,9.415-19.7A3.455,3.455,0,0,0,271.951,276.577Z" transform="translate(-243.911 -275.998)"/>
                  </g>
                  <g id="Group_28470" data-name="Group 28470" transform="translate(0 7.817)">
                    <path id="Path_71884" data-name="Path 71884" d="M266.907,312.763c-4.321,0-10.885-2.424-17.567-6.792h0c-9.946-6.5-15.844-14.489-13.429-18.185,1.181-1.808,4.155-2.256,8.372-1.264a50.575,50.575,0,0,1,24.9,16.275c2.6,3.465,3.383,6.368,2.2,8.175C270.593,312.184,269.018,312.763,266.907,312.763Zm-17.239-7.294c9.5,6.211,19.021,8.532,21.217,5.175,1.018-1.557.223-4.287-2.18-7.487A49.991,49.991,0,0,0,244.147,287.1c-3.9-.916-6.715-.549-7.733,1.009-2.2,3.358,3.751,11.144,13.254,17.356Z" transform="translate(-235.371 -286.006)"/>
                  </g>
                </g>
                <g id="Group_28472" data-name="Group 28472" transform="translate(15.599 18.512)">
                  <ellipse id="Ellipse_1239" data-name="Ellipse 1239" cx="2.831" cy="2.831" rx="2.831" ry="2.831"/>
                </g>
              </g>
              <g id="Group_28474" data-name="Group 28474" transform="translate(31.363 4.942)">
                <path id="Path_71885" data-name="Path 71885" d="M357.7,277.085a1.939,1.939,0,1,1-1.939-1.938A1.939,1.939,0,0,1,357.7,277.085Z" transform="translate(-353.819 -275.147)"/>
              </g>
              <g id="Group_28475" data-name="Group 28475" transform="translate(1.469 34.122)">
                <path id="Path_71886" data-name="Path 71886" d="M244.795,387.29a1.938,1.938,0,1,1-1.938-1.938A1.939,1.939,0,0,1,244.795,387.29Z" transform="translate(-240.918 -385.352)"/>
              </g>
            </g>
            <g id="Group_28486" data-name="Group 28486" transform="translate(16.856)">
              <g id="Group_28477" data-name="Group 28477">
                <path id="Path_71887" data-name="Path 71887" d="M127.31,144.011l7.01,14.954,55.922-25.079-5.919-16.823Z" transform="translate(-127.31 -117.062)" fill="#ffeae2"/>
              </g>
              <g id="Group_28485" data-name="Group 28485" transform="translate(7.721 6.146)">
                <g id="Group_28478" data-name="Group 28478" transform="translate(0 19.96)">
                  <path id="Path_71888" data-name="Path 71888" d="M159.138,224.74a1.187,1.187,0,0,1-.583-.47,1.447,1.447,0,0,1,.11-1.059.931.931,0,0,1,.447-.545,1.561,1.561,0,0,1,1.117.111l.084.03a1.956,1.956,0,0,0,.208.085,2.124,2.124,0,0,0,.473.082,1.12,1.12,0,0,0,.59-.085q1.072-.5.664-1.373a.571.571,0,0,0-.5-.307,2.393,2.393,0,0,0-.852.081,7.021,7.021,0,0,1-1.065.181,6.831,6.831,0,0,1-1.139.019,2.111,2.111,0,0,1-1.088-.425,2.807,2.807,0,0,1-.88-1.125,2.669,2.669,0,0,1-.068-2.117,3.06,3.06,0,0,1,1.7-1.71,4.651,4.651,0,0,1,1.344-.409,2.69,2.69,0,0,1,.957,0l.31.066.079.02q.513.167.615.386a1.408,1.408,0,0,1,.023.773,1.162,1.162,0,0,1-.539.95,1.3,1.3,0,0,1-.705.049,1.422,1.422,0,0,1-.186-.053,1.47,1.47,0,0,0-.245-.061,1.155,1.155,0,0,0-.319.023,1.857,1.857,0,0,0-.468.154.971.971,0,0,0-.441.422.6.6,0,0,0-.03.581.677.677,0,0,0,.545.405,1.991,1.991,0,0,0,.854-.076,9.581,9.581,0,0,1,1.056-.231,6.6,6.6,0,0,1,1.119-.093,1.861,1.861,0,0,1,1.066.379,2.789,2.789,0,0,1,.885,1.136,3.062,3.062,0,0,1,.309,1.446,2.536,2.536,0,0,1-.368,1.242,4.124,4.124,0,0,1-.77.919,3.926,3.926,0,0,1-.944.621,4.265,4.265,0,0,1-1.086.344,3.282,3.282,0,0,1-.939.045,4.451,4.451,0,0,1-.709-.139,2.011,2.011,0,0,1-.472-.186Z" transform="translate(-156.47 -215.659)"/>
                </g>
                <g id="Group_28479" data-name="Group 28479" transform="translate(7.189 16.267)">
                  <path id="Path_71889" data-name="Path 71889" d="M190.575,207.777l.048-.079a1.511,1.511,0,0,1,.446-.487q.357-.166,1.071.286a1.484,1.484,0,0,1,.559.539.6.6,0,0,1,.026.464,2.431,2.431,0,0,1-.306.562q-.072.117-.208.321a4.53,4.53,0,0,1-.638.661,4.313,4.313,0,0,1-1.089.731,4.713,4.713,0,0,1-1.132.351,5.167,5.167,0,0,1-1.376.052,5.223,5.223,0,0,1-1.451-.334,4.2,4.2,0,0,1-1.361-.894,4.933,4.933,0,0,1-1.084-1.534,4.675,4.675,0,0,1-.453-1.757,4.119,4.119,0,0,1,.2-1.565,4.943,4.943,0,0,1,.69-1.3,5.481,5.481,0,0,1,.949-1.015,4.972,4.972,0,0,1,1.033-.656,4.22,4.22,0,0,1,1.177-.344,4.3,4.3,0,0,1,1-.054l.351.033a3.639,3.639,0,0,1,.416.065,1.072,1.072,0,0,1,.317.139.637.637,0,0,1,.248.277,1.191,1.191,0,0,1,.048.734q-.16.83-.517,1a1.342,1.342,0,0,1-.7.019,2.2,2.2,0,0,0-1.472.209,2.48,2.48,0,0,0-.676.475,3.2,3.2,0,0,0-.552.726,2.115,2.115,0,0,0-.249.985,2.523,2.523,0,0,0,.252,1.143,2.552,2.552,0,0,0,.718.941,2.132,2.132,0,0,0,.922.447,2.984,2.984,0,0,0,.916.042,2.493,2.493,0,0,0,.785-.21,2.63,2.63,0,0,0,.63-.406,1.929,1.929,0,0,0,.369-.4Z" transform="translate(-183.621 -201.712)"/>
                </g>
                <g id="Group_28480" data-name="Group 28480" transform="translate(13.969 14.421)">
                  <path id="Path_71890" data-name="Path 71890" d="M209.428,196.418a3.705,3.705,0,0,1-.167-.405,1.022,1.022,0,0,1-.032-.356.558.558,0,0,1,.2-.387,2.229,2.229,0,0,1,.555-.342,1.99,1.99,0,0,1,.522-.173,1,1,0,0,1,.363,0,.533.533,0,0,1,.265.164,1.128,1.128,0,0,1,.181.238c.038.071.091.179.158.325l2.978,6.4a3.644,3.644,0,0,1,.171.412,1.018,1.018,0,0,1,.03.35.554.554,0,0,1-.2.387,2.21,2.21,0,0,1-.555.342,1.946,1.946,0,0,1-.522.173,1,1,0,0,1-.364,0,.53.53,0,0,1-.265-.164,1.149,1.149,0,0,1-.181-.238q-.056-.106-.159-.325Z" transform="translate(-209.226 -194.738)"/>
                </g>
                <g id="Group_28481" data-name="Group 28481" transform="translate(16.941 10.911)">
                  <path id="Path_71891" data-name="Path 71891" d="M225.186,189.738l3.546-1.65a3.7,3.7,0,0,1,.405-.167,1.013,1.013,0,0,1,.356-.032.557.557,0,0,1,.387.2,2.221,2.221,0,0,1,.342.555,1.961,1.961,0,0,1,.173.523,1.013,1.013,0,0,1,0,.364.534.534,0,0,1-.164.265,1.125,1.125,0,0,1-.238.181c-.071.039-.18.091-.325.159l-4.56,2.121a1.943,1.943,0,0,1-.522.173,1,1,0,0,1-.364,0,.529.529,0,0,1-.265-.163,1.142,1.142,0,0,1-.181-.238c-.038-.071-.091-.18-.158-.326l-2.979-6.4a1.231,1.231,0,0,1-.153-.9,1.33,1.33,0,0,1,.731-.6l4.536-2.11a3.647,3.647,0,0,1,.405-.167,1.02,1.02,0,0,1,.356-.033.558.558,0,0,1,.387.2,2.228,2.228,0,0,1,.342.555,1.955,1.955,0,0,1,.173.522.993.993,0,0,1,0,.364.524.524,0,0,1-.164.265,1.114,1.114,0,0,1-.238.181c-.071.038-.18.09-.325.158l-3.536,1.644.541,1.163,2.28-1.06a3.726,3.726,0,0,1,.405-.168,1.029,1.029,0,0,1,.356-.032.559.559,0,0,1,.386.2,2.226,2.226,0,0,1,.343.555,1.985,1.985,0,0,1,.173.522,1,1,0,0,1,0,.364.533.533,0,0,1-.169.267,1.2,1.2,0,0,1-.244.184c-.072.038-.18.09-.325.158l-2.257,1.05Z" transform="translate(-220.451 -181.484)"/>
                </g>
                <g id="Group_28482" data-name="Group 28482" transform="translate(24.28 7.155)">
                  <path id="Path_71892" data-name="Path 71892" d="M254.269,167.486a1.993,1.993,0,0,1,.516-.171.935.935,0,0,1,.364,0,.557.557,0,0,1,.259.166,1.16,1.16,0,0,1,.181.239c.038.071.091.179.158.325l2.972,6.391a3.62,3.62,0,0,1,.171.411,1,1,0,0,1,.03.35.552.552,0,0,1-.2.387,2.225,2.225,0,0,1-.555.343,2.111,2.111,0,0,1-.654.22.733.733,0,0,1-.39-.085q-4.2-2.25-5.509-2.928l1.762,3.788a3.574,3.574,0,0,1,.17.411,1.01,1.01,0,0,1,.03.35.551.551,0,0,1-.2.386,2.226,2.226,0,0,1-.555.343,2.105,2.105,0,0,1-.6.2.552.552,0,0,1-.418-.1,1.01,1.01,0,0,1-.254-.26,3.769,3.769,0,0,1-.2-.4l-2.989-6.425a2.648,2.648,0,0,1-.159-.4,1.089,1.089,0,0,1-.024-.34.545.545,0,0,1,.2-.372,2.237,2.237,0,0,1,.555-.342,1.971,1.971,0,0,1,.553-.181.867.867,0,0,1,.347.007,2.518,2.518,0,0,1,.317.14l.089.042q3.968,2.174,5.278,2.854l-1.81-3.892a2.73,2.73,0,0,1-.16-.4,1.119,1.119,0,0,1-.024-.34.542.542,0,0,1,.2-.372A2.218,2.218,0,0,1,254.269,167.486Z" transform="translate(-248.17 -167.297)"/>
                </g>
                <g id="Group_28483" data-name="Group 28483" transform="translate(33.604 3.981)">
                  <path id="Path_71893" data-name="Path 71893" d="M290.338,161.376l.047-.079a1.528,1.528,0,0,1,.446-.487q.358-.166,1.072.286a1.481,1.481,0,0,1,.558.539.6.6,0,0,1,.027.464,2.47,2.47,0,0,1-.306.562c-.048.078-.117.185-.208.32a4.534,4.534,0,0,1-.638.661,4.313,4.313,0,0,1-1.089.731,4.705,4.705,0,0,1-1.132.352,5.449,5.449,0,0,1-2.827-.282,4.2,4.2,0,0,1-1.361-.894,4.93,4.93,0,0,1-1.084-1.534,4.667,4.667,0,0,1-.453-1.757,4.109,4.109,0,0,1,.2-1.566,4.952,4.952,0,0,1,.691-1.3,5.474,5.474,0,0,1,.949-1.015,4.94,4.94,0,0,1,1.033-.656,4.24,4.24,0,0,1,1.177-.344,4.313,4.313,0,0,1,1-.054l.352.033a3.564,3.564,0,0,1,.416.066,1.084,1.084,0,0,1,.317.139.643.643,0,0,1,.248.277,1.194,1.194,0,0,1,.048.734q-.161.83-.517,1a1.335,1.335,0,0,1-.705.019,2.2,2.2,0,0,0-1.472.209,2.472,2.472,0,0,0-.676.476,3.2,3.2,0,0,0-.552.725,2.118,2.118,0,0,0-.249.985,2.725,2.725,0,0,0,.97,2.084,2.12,2.12,0,0,0,.922.447,2.985,2.985,0,0,0,.916.042,2.5,2.5,0,0,0,.785-.21,2.631,2.631,0,0,0,.63-.406,1.9,1.9,0,0,0,.369-.4Z" transform="translate(-283.383 -155.311)"/>
                </g>
                <g id="Group_28484" data-name="Group 28484" transform="translate(40.397)">
                  <path id="Path_71894" data-name="Path 71894" d="M313.773,148.53l3.547-1.649a3.787,3.787,0,0,1,.405-.168,1.016,1.016,0,0,1,.356-.032.559.559,0,0,1,.386.2,2.218,2.218,0,0,1,.343.555,1.993,1.993,0,0,1,.173.523,1.007,1.007,0,0,1,0,.364.532.532,0,0,1-.164.266,1.136,1.136,0,0,1-.238.18c-.071.039-.18.091-.325.159l-4.56,2.121a1.943,1.943,0,0,1-.522.173,1,1,0,0,1-.364,0,.526.526,0,0,1-.265-.164,1.15,1.15,0,0,1-.181-.238q-.056-.106-.158-.325l-2.978-6.4a1.23,1.23,0,0,1-.154-.9,1.33,1.33,0,0,1,.73-.6l4.537-2.11a3.685,3.685,0,0,1,.405-.168,1.017,1.017,0,0,1,.356-.033.558.558,0,0,1,.387.2,2.206,2.206,0,0,1,.343.555,1.952,1.952,0,0,1,.172.522,1,1,0,0,1,0,.364.528.528,0,0,1-.164.266,1.167,1.167,0,0,1-.238.181c-.071.038-.18.091-.326.158l-3.535,1.645.541,1.163,2.28-1.06a3.822,3.822,0,0,1,.405-.167,1.028,1.028,0,0,1,.356-.032.559.559,0,0,1,.386.2,2.209,2.209,0,0,1,.342.555,1.963,1.963,0,0,1,.173.522,1.007,1.007,0,0,1,0,.364.535.535,0,0,1-.169.268,1.231,1.231,0,0,1-.244.184q-.107.057-.326.158l-2.257,1.05Z" transform="translate(-309.038 -140.275)"/>
                </g>
              </g>
            </g>
          </g>
        </g>
        <g id="Group_28492" data-name="Group 28492" transform="translate(6.655 16.408)">
          <g id="Group_28489" data-name="Group 28489">
            <path id="Path_71895" data-name="Path 71895" d="M80.231,83.321a15.959,15.959,0,0,1-2.729-6.2l-.007-.063,0,.022-.007-.026,0,.077a15.95,15.95,0,0,1-2.131,6.424,8.855,8.855,0,0,1-5.859,3.594c4.575,1.075,8.328,4.554,8.912,9.217.008,0,.008,0,.013-.009.142-4.7,3.531-8.511,7.984-10.013A8.856,8.856,0,0,1,80.231,83.321Z" transform="translate(-69.493 -77.056)" fill="#ffb46a"/>
          </g>
          <g id="Group_28490" data-name="Group 28490" transform="translate(83.65 43.616)">
            <path id="Path_71896" data-name="Path 71896" d="M396.153,248.046a15.954,15.954,0,0,1-2.729-6.2l-.007-.062c0,.007,0,.015,0,.022,0-.009,0-.018-.007-.026,0,.026,0,.052,0,.077a15.955,15.955,0,0,1-2.131,6.424,8.856,8.856,0,0,1-5.859,3.594c4.575,1.075,8.328,4.554,8.913,9.217.008,0,.008,0,.013-.009.142-4.7,3.531-8.511,7.984-10.013A8.853,8.853,0,0,1,396.153,248.046Z" transform="translate(-385.415 -241.781)" fill="#ffb46a"/>
          </g>
          <g id="Group_28491" data-name="Group 28491" transform="translate(3.738 66.982)">
            <path id="Path_71897" data-name="Path 71897" d="M94.35,336.292a15.955,15.955,0,0,1-2.729-6.2l-.007-.063c0,.007,0,.015,0,.022l-.007-.026c0,.027,0,.052,0,.077a15.956,15.956,0,0,1-2.131,6.424,8.856,8.856,0,0,1-5.859,3.594c4.575,1.075,8.328,4.555,8.913,9.217.008,0,.008,0,.013-.009.142-4.7,3.531-8.511,7.984-10.013A8.854,8.854,0,0,1,94.35,336.292Z" transform="translate(-83.612 -330.027)" fill="#ffb46a"/>
          </g>
        </g>
      </g>
    </g>
  </g>
</svg>
