<svg xmlns="http://www.w3.org/2000/svg" width="60" height="60" viewBox="0 0 60 60">
  <g id="Group_77462" data-name="Group 77462" transform="translate(-195 -1622)">
    <circle id="Ellipse_1249" data-name="Ellipse 1249" cx="30" cy="30" r="30" transform="translate(195 1622)" fill="#d23f4f"/>
    <path id="Financial_Literacy" data-name="Financial Literacy" d="M8.01,11a1,1,0,0,1-1-1H6.74a3.006,3.006,0,0,1-2.6-1.5A1.006,1.006,0,0,1,5.88,7.49a1,1,0,0,0,.87.5H9.39a.624.624,0,0,0,.1-1.24L6.2,6.2A2.623,2.623,0,0,1,6.63.99h.38a1,1,0,0,1,2,0h.27a3.006,3.006,0,0,1,2.6,1.5A1,1,0,1,1,10.15,3.5,1,1,0,0,0,9.28,3H6.64a.623.623,0,0,0-.62.62.632.632,0,0,0,.52.62l3.29.55A2.623,2.623,0,0,1,9.4,10H9.02a1,1,0,0,1-1,1Zm15.01,3.47-5.2,5.94A10.507,10.507,0,0,1,9.91,24H4.51A4.509,4.509,0,0,1,0,19.5v-4A4.509,4.509,0,0,1,4.51,11h7.86a3.636,3.636,0,0,1,2.45.95l2.44-2.68a3.8,3.8,0,0,1,2.69-1.26,3.886,3.886,0,0,1,3.08,6.47Zm-2.3-3.24a.917.917,0,0,0-.64-.23.845.845,0,0,0-.61.29l-3.5,3.84a3.681,3.681,0,0,1-3.09,3.12l-5.16.74a1.5,1.5,0,0,1-.43-2.97l5.16-.74a.638.638,0,0,0-.09-1.27H4.51a1.5,1.5,0,0,0-1.5,1.5v4a1.5,1.5,0,0,0,1.5,1.5H9.92a7.516,7.516,0,0,0,5.65-2.56l5.21-5.95a.893.893,0,0,0-.05-1.25Z" transform="translate(212.994 1640.005)" fill="#fff"/>
  </g>
</svg>
