<svg xmlns="http://www.w3.org/2000/svg" width="60" height="60" viewBox="0 0 60 60">
  <g id="Group_77464" data-name="Group 77464" transform="translate(-195 -1622)">
    <circle id="Ellipse_1249" data-name="Ellipse 1249" cx="30" cy="30" r="30" transform="translate(195 1622)" fill="#288fc3"/>
    <path id="cyber_secuirty" data-name="cyber secuirty" d="M8,4A4,4,0,0,0,0,4V7A4,4,0,0,0,8,7ZM6,7A2,2,0,0,1,2,7V4A2,2,0,0,1,6,4Zm6,7a1,1,0,0,1-1,1,2.006,2.006,0,0,0-2,2v3a1.981,1.981,0,0,0,.67,1.49,1,1,0,0,1-1.34,1.49A3.987,3.987,0,0,1,7,20V17a4,4,0,0,1,4-4A1,1,0,0,1,12,14ZM9.85,4.15a1,1,0,0,1,0-1.41L12.29.29A1,1,0,0,1,14,.99V9a1,1,0,0,1-2,0V3.41l-.74.74a1,1,0,0,1-1.41,0ZM5,14v9a1,1,0,0,1-2,0V16.41l-.74.74A1,1,0,0,1,.85,15.74L3.29,13.3A1,1,0,0,1,5,14Zm17,.56V13a4,4,0,0,0-8,0v1.56A3.98,3.98,0,0,0,12,18v2a4,4,0,0,0,4,4h4a4,4,0,0,0,4-4V18a3.98,3.98,0,0,0-2-3.44ZM16,13a2,2,0,0,1,4,0v1H16Zm3.5,6A1.5,1.5,0,1,1,18,17.5,1.5,1.5,0,0,1,19.5,19Z" transform="translate(213 1640.002)" fill="#fff"/>
  </g>
</svg>
