<svg xmlns="http://www.w3.org/2000/svg" width="60" height="60" viewBox="0 0 60 60">
  <g id="Group_77466" data-name="Group 77466" transform="translate(-195 -1622)">
    <circle id="Ellipse_1249" data-name="Ellipse 1249" cx="30" cy="30" r="30" transform="translate(195 1622)" fill="#fcc048"/>
    <path id="maths_icon" data-name="maths icon" d="M24,12a1.5,1.5,0,0,1-1.5,1.5h-9v9a1.5,1.5,0,0,1-3,0v-9h-9a1.5,1.5,0,0,1,0-3h9v-9a1.5,1.5,0,0,1,3,0v9h9A1.5,1.5,0,0,1,24,12Zm-1.5,4h-6a1.5,1.5,0,0,0,0,3h6a1.5,1.5,0,0,0,0-3Zm0,5h-6a1.5,1.5,0,0,0,0,3h6a1.5,1.5,0,0,0,0-3ZM1.5,6h6a1.5,1.5,0,0,0,0-3h-6a1.5,1.5,0,0,0,0,3Zm15,0H18V7.5a1.5,1.5,0,0,0,3,0V6h1.5a1.5,1.5,0,0,0,0-3H21V1.5a1.5,1.5,0,0,0-3,0V3H16.5a1.5,1.5,0,0,0,0,3ZM7.561,16.439a1.5,1.5,0,0,0-2.121,0L4,17.878,2.562,16.439A1.5,1.5,0,0,0,.441,18.56L1.88,20,.441,21.438a1.5,1.5,0,0,0,2.122,2.121L4,22.12l1.439,1.439a1.5,1.5,0,1,0,2.122-2.121L6.124,20,7.563,18.56a1.5,1.5,0,0,0,0-2.121Z" transform="translate(213 1640)"/>
  </g>
</svg>
