<svg id="Group_77407" data-name="Group 77407" xmlns="http://www.w3.org/2000/svg" width="267" height="253" viewBox="0 0 267 253">
  <rect id="Rectangle_12258" data-name="Rectangle 12258" width="267" height="253" rx="12" fill="#ffcf00"/>
  <g id="physics" transform="translate(36.488 48.551)">
    <g id="Group_28444" data-name="Group 28444" transform="translate(0 0)">
      <g id="Group_28434" data-name="Group 28434" transform="translate(3.42 3.886)">
        <g id="Group_28431" data-name="Group 28431" transform="translate(1.531 1.535)">
          <path id="Path_71824" data-name="Path 71824" d="M186.484,68.969l14.057,103.845a4.467,4.467,0,0,1-3.835,5.026L32.19,200.111a4.455,4.455,0,0,1-3.77-1.287,4.4,4.4,0,0,1-1.255-2.539L13.108,92.439a4.471,4.471,0,0,1,3.827-5.025l164.516-22.27A4.467,4.467,0,0,1,186.484,68.969Z" transform="translate(-13.067 -65.102)" fill="#6280ff"/>
          <g id="Group_28426" data-name="Group 28426" transform="translate(114.955 54.563)">
            <path id="Path_71825" data-name="Path 71825" d="M416.42,217.135a4.128,4.128,0,1,1,2.544-5.254A4.128,4.128,0,0,1,416.42,217.135Z" transform="translate(-375.139 -209.107)" fill="#ffcf00"/>
            <path id="Path_71826" data-name="Path 71826" d="M452.521,322.341a4.128,4.128,0,1,1,.81-5.781A4.128,4.128,0,0,1,452.521,322.341Z" transform="translate(-396.86 -274.826)" fill="#ffcf00"/>
            <path id="Path_71827" data-name="Path 71827" d="M322.84,326.8a4.128,4.128,0,1,1,1.208-5.711A4.128,4.128,0,0,1,322.84,326.8Z" transform="translate(-316.46 -277.492)" fill="#ffcf00"/>
          </g>
          <g id="Group_28427" data-name="Group 28427" transform="translate(15.353 18.62)" opacity="0.25">
            <path id="Path_71828" data-name="Path 71828" d="M213.648,114.246l12.06,89.092a4.467,4.467,0,0,1-3.835,5.026L57.358,230.634a4.455,4.455,0,0,1-3.77-1.288,46.283,46.283,0,0,1,15.175-9.979c12.3-5.033,25.977-5.88,39.311-7.01a739.729,739.729,0,0,0,84.72-12.186c4.674-.945,9.6-2.059,13.084-5.1,5.7-4.932,5.626-13,4.915-19.993-1.335-13.163-3.445-26.323-2.571-39.566C208.7,128.285,210.24,120.8,213.648,114.246Z" transform="translate(-53.588 -114.246)" fill="#000e3f"/>
          </g>
          <path id="Path_71831" data-name="Path 71831" d="M113.707,122.257c-3.013.861-6.055,1.513-9.107,2.09s-6.117,1.057-9.187,1.5l-4.617.576c-1.544.151-3.083.343-4.633.455-3.094.265-6.2.455-9.331.434a1.06,1.06,0,0,1-.282-2.079c3.014-.854,6.057-1.5,9.111-2.063,1.524-.3,3.059-.529,4.587-.793l4.6-.672c3.077-.389,6.158-.755,9.255-1s6.2-.435,9.335-.406a1,1,0,0,1,.265,1.956Z" transform="translate(-52.018 -99.384)" fill="#fff" opacity="0.5"/>
          <g id="Group_28429" data-name="Group 28429" transform="translate(44.585 71.453)">
            <path id="Path_71832" data-name="Path 71832" d="M399.558,279.922a6.591,6.591,0,1,1,1.293-9.23A6.59,6.59,0,0,1,399.558,279.922Z" transform="translate(-291.144 -262.618)" fill="#fc09b2"/>
            <path id="Path_71833" data-name="Path 71833" d="M144.6,267.1a7.991,7.991,0,1,1-.45-11.293A7.991,7.991,0,0,1,144.6,267.1Z" transform="translate(-130.738 -253.683)" fill="#fc09b2"/>
          </g>
          <g id="Group_28430" data-name="Group 28430" transform="translate(47.557 73.665)">
            <path id="Path_71834" data-name="Path 71834" d="M404.305,274.858a1.471,1.471,0,0,1-2.033,1.825,4.006,4.006,0,0,1-1.059-.655,20.763,20.763,0,0,0-2.551-1.617.819.819,0,0,1-.271-1.127C399.107,272.113,403.276,272.086,404.305,274.858Z" transform="translate(-299.875 -267.604)" fill="#fff"/>
            <path id="Path_71835" data-name="Path 71835" d="M141.332,259.857c3.238-1.3,4.149,1.555,2.626,2.514-1.378.868-2.1.576-3.089,1.926-.215.292-.7,1.684-1.542,1.255a.988.988,0,0,1-.39-.442C137.882,263.112,139.313,260.671,141.332,259.857Z" transform="translate(-138.581 -259.522)" fill="#fff"/>
          </g>
        </g>
        <g id="Group_28432" data-name="Group 28432">
          <path id="Path_71836" data-name="Path 71836" d="M199.548,170.092,185.491,66.246a6,6,0,0,0-6.751-5.141L14.223,83.376a6,6,0,0,0-5.141,6.75L23.139,193.972a5.994,5.994,0,0,0,6.75,5.141l164.517-22.27A6.007,6.007,0,0,0,199.548,170.092Zm-5.347,5.234L29.684,197.6a4.465,4.465,0,0,1-5.028-3.83L10.6,89.921a4.469,4.469,0,0,1,3.829-5.029l164.517-22.27a4.553,4.553,0,0,1,.605-.041,4.47,4.47,0,0,1,4.424,3.87L198.031,170.3A4.469,4.469,0,0,1,194.2,175.326Z" transform="translate(-9.027 -61.051)" fill="#000e3f"/>
          <path id="Path_71840" data-name="Path 71840" d="M373.661,300.915l-1.555.8a.995.995,0,1,0,.912,1.768l1.555-.8a.995.995,0,1,0-.912-1.768Z" transform="translate(-234.201 -209.962)" fill="#000e3f"/>
          <path id="Path_71841" data-name="Path 71841" d="M344.935,315.723l-1.555.8a.995.995,0,1,0,.912,1.768l1.555-.8a.995.995,0,0,0-.912-1.768Z" transform="translate(-216.359 -219.159)" fill="#000e3f"/>
          <path id="Path_71842" data-name="Path 71842" d="M359.3,308.318l-1.555.8a.995.995,0,1,0,.912,1.768l1.555-.8a.995.995,0,1,0-.912-1.768Z" transform="translate(-225.279 -214.56)" fill="#000e3f"/>
          <path id="Path_71843" data-name="Path 71843" d="M414.154,234.963a.993.993,0,0,0-1.2.74l-.4,1.7a1,1,0,0,0,.739,1.2,1.017,1.017,0,0,0,.23.027,1,1,0,0,0,.968-.766l.4-1.7A1,1,0,0,0,414.154,234.963Z" transform="translate(-259.641 -169.051)" fill="#000e3f"/>
          <path id="Path_71844" data-name="Path 71844" d="M410.432,250.687a.992.992,0,0,0-1.2.74l-.4,1.7a1,1,0,0,0,.739,1.2,1.019,1.019,0,0,0,.23.027.994.994,0,0,0,.967-.766l.4-1.7A1,1,0,0,0,410.432,250.687Z" transform="translate(-257.329 -178.817)" fill="#000e3f"/>
          <path id="Path_71845" data-name="Path 71845" d="M437.308,307.614a1,1,0,1,0-1.223,1.57l1.38,1.075a.995.995,0,1,0,1.223-1.57Z" transform="translate(-274.035 -214.061)" fill="#000e3f"/>
          <path id="Path_71846" data-name="Path 71846" d="M424.559,297.684a1,1,0,0,0-1.223,1.57l1.38,1.074a1,1,0,1,0,1.223-1.57Z" transform="translate(-266.117 -207.893)" fill="#000e3f"/>
          <g id="Group_77358" data-name="Group 77358" transform="translate(100.203 20.515)">
            <path id="Path_71847" data-name="Path 71847" d="M298.009,192.36c-1.9.81-3.713,1.324-5.569,2.047l-.03-.013a11.9,11.9,0,0,1-1.027-2.638c.205-.347,1.688-.657,2.463-1.227a24.075,24.075,0,0,0-1.184-2.915l-.009-.022c-.874.316-1.751.682-2.619.948l-.029-.013a12.952,12.952,0,0,1-.983-2.461l.014-.028.064-.025c1.79-.893,3.792-1.307,5.428-2.406l-.008-.022a21.646,21.646,0,0,0-1.167-3c-.049-.127-5.479,2.086-8.685,3.528,1.607,4.937,3.693,9.544,5.6,14.439,2.811-.827,5.789-2.229,8.666-3.324a9.234,9.234,0,0,0-.907-2.831Z" transform="translate(-284.667 -162.592)" fill="#000e3f"/>
            <path id="Path_71848" data-name="Path 71848" d="M335.557,196.233a22.122,22.122,0,0,1-1.237-2.993l-8,3.113c.065.168.841,2.346,1.063,2.914.422-.164,7.729-2.863,8.151-3.027Z" transform="translate(-310.539 -170.453)" fill="#000e3f"/>
            <path id="Path_71849" data-name="Path 71849" d="M331.069,184.707a22.126,22.126,0,0,1-1.238-2.993l-8,3.113c.065.168.841,2.346,1.063,2.914.422-.164,7.729-2.863,8.151-3.027Z" transform="translate(-307.752 -163.294)" fill="#000e3f"/>
            <path id="Path_71850" data-name="Path 71850" d="M355.905,156.118c-.886.345-2.665,1.206-3.09,1.3-.252.85.229,3.773.036,3.775a.2.2,0,0,1-.152-.013c-.7-.482-1.876-2.258-2.634-2.644l-.021.008a17.059,17.059,0,0,0-2.828,1.222c4.377,11.49,5.379,14.063,5.632,14.4.038.033.066.047.087.038a21.308,21.308,0,0,0,2.93-1.213,57.136,57.136,0,0,1-3.178-7.971c0-.051,2.021,2.566,2.45,2.422.233-.091-.006-2.888.13-3.6,1.194,2.256,2.448,5.728,3.491,8.092a26.55,26.55,0,0,1,2.793-1.063L359,164.122C358.093,161.365,356.851,158.86,355.905,156.118Z" transform="translate(-323.518 -147.396)" fill="#000e3f"/>
            <path id="Path_71851" data-name="Path 71851" d="M393.121,153.684a22.62,22.62,0,0,0-2.877.974c.124.753.6,1.418.54,2.2a1.538,1.538,0,0,1-1.211,1.322c-.913.088-1.553-.682-1.957-1.473a44.538,44.538,0,0,1-2.258-6.047.879.879,0,0,1,.021-.323c.142-.323.59-.544.924-.749,1.621-.7,1.965,1.179,2.57,2.231a8.186,8.186,0,0,0,3.113-1.113c-.17-4.43-5.558-6.414-8.926-3.645a3.38,3.38,0,0,0-.888.9,4.682,4.682,0,0,0-.445,2.289,3.107,3.107,0,0,0,.319,1.5c1.71,4.582,2.577,6.747,3.472,8.732,1.152,2.272,3.984,2,5.882.942A4.954,4.954,0,0,0,393.121,153.684Z" transform="translate(-344.947 -140.977)" fill="#000e3f"/>
            <path id="Path_71852" data-name="Path 71852" d="M420.463,139.474c-1.07.417-1.922.818-3.03,1.208-.161-.008-.144-.582-.143-.766.464-1.428,2.611-2.251,2.051-4.13-.118-.338-.31-.758-.457-1.1a2.652,2.652,0,0,0-2.007-1.586c-1.026-.011-3,.784-3.32,1.889a3.612,3.612,0,0,0,.491,3.084l.009.025.013-.005a8.437,8.437,0,0,0,1.8-.77l.013-.005-.01-.025c-.194-.606-.47-1.533.33-1.845.8-.2,1.394.99.9,1.679-.581,1.02-1.447,1.712-1.89,2.906-.194,1.068.426,2.074.759,3.221a.048.048,0,0,0,.026.032l.555-.216,4.655-1.883c.037-.014.05-.019.045-.031a2.138,2.138,0,0,1-.236-.533A3.318,3.318,0,0,0,420.463,139.474Z" transform="translate(-364.616 -133.1)" fill="#000e3f"/>
          </g>
          <path id="Path_71853" data-name="Path 71853" d="M122.09,213.583c-1.007-.856-2.1-1.7-3.26-2.539.9-1.114,1.724-2.221,2.468-3.315,4.409-6.483,5.505-11.885,3.087-15.21-1.013-1.393-3.141-3.053-7.53-3.053h0c-3.67,0-8.246,1.144-13.235,3.2-.637-1.631-1.314-3.175-2.032-4.6-3.468-6.909-7.4-10.561-11.382-10.561h0a6.237,6.237,0,0,0-.837.056c-4.074.551-7.22,5.078-8.857,12.745a53.545,53.545,0,0,0-.867,5.607,52.53,52.53,0,0,0-6.281-.413c-9.584,0-12.781,3.151-13.774,5.794-1.447,3.849,1.046,8.764,7.02,13.842,1.008.857,2.1,1.7,3.26,2.539-.9,1.114-1.724,2.221-2.468,3.315-4.408,6.483-5.505,11.885-3.087,15.211,1.013,1.392,3.141,3.053,7.532,3.053,3.669,0,8.246-1.144,13.235-3.2.637,1.631,1.315,3.175,2.032,4.6,3.468,6.909,7.4,10.561,11.382,10.561a6.244,6.244,0,0,0,.837-.056c4.074-.551,7.22-5.078,8.857-12.745a53.328,53.328,0,0,0,.867-5.607,52.544,52.544,0,0,0,6.281.413c9.584,0,12.781-3.151,13.774-5.794C130.557,223.577,128.064,218.661,122.09,213.583ZM116.854,191c2.9,0,5.1.778,6.293,2.422,2.472,3.4.1,9.735-5.574,16.745a79.063,79.063,0,0,0-10.5-5.95A81.671,81.671,0,0,0,104.16,194.1C109.043,192.086,113.44,191,116.854,191Zm-9.178,40.08a79.523,79.523,0,0,1-9.45-2.017q2.277-1.472,4.547-3.116c1.757-1.278,3.447-2.6,5.065-3.938A79.066,79.066,0,0,1,107.675,231.076Zm-5.8-6.371c-1.874,1.363-3.751,2.621-5.615,3.787-2.1-.629-4.246-1.346-6.411-2.16-2.4-.9-4.7-1.874-6.891-2.894-.507-2.363-.941-4.824-1.285-7.365s-.58-5.028-.72-7.44c1.84-1.566,3.8-3.116,5.874-4.623,1.874-1.363,3.751-2.621,5.615-3.787,2.1.629,4.246,1.346,6.411,2.16,2.4.9,4.7,1.873,6.891,2.894.507,2.364.941,4.825,1.285,7.365s.58,5.028.72,7.441C105.907,221.648,103.945,223.2,101.872,224.7Zm-7.346,4.845a79.545,79.545,0,0,1-8.579,4.463,78.764,78.764,0,0,1-2.568-8.7c1.916.864,3.9,1.685,5.929,2.45C91.057,228.422,92.8,229.006,94.526,229.55ZM80.155,216.279c.291,2.15.65,4.264,1.065,6.327a76.764,76.764,0,0,1-9.11-5.238,76.839,76.839,0,0,1,7.395-7.476C79.653,211.991,79.862,214.123,80.155,216.279Zm.868-18.64a79.484,79.484,0,0,1,9.45,2.017q-2.277,1.472-4.547,3.116c-1.757,1.278-3.447,2.6-5.065,3.938A78.9,78.9,0,0,1,81.022,197.639Zm13.149,1.526a79.534,79.534,0,0,1,8.579-4.463,78.84,78.84,0,0,1,2.568,8.7q-2.874-1.3-5.929-2.45C97.641,200.292,95.9,199.71,94.171,199.165Zm14.372,13.271c-.291-2.15-.65-4.264-1.066-6.327a76.806,76.806,0,0,1,9.11,5.238,76.857,76.857,0,0,1-7.395,7.476C109.044,216.724,108.835,214.592,108.543,212.436ZM89.572,179.074a4.712,4.712,0,0,1,.632-.042c4.2,0,8.624,5.561,12,14.232a82.459,82.459,0,0,0-10,5.293,81.529,81.529,0,0,0-11.05-2.435C82.16,186.391,85.186,179.667,89.572,179.074ZM61.02,201.828c1.206-3.209,5.813-4.8,12.341-4.8a50.8,50.8,0,0,1,6.155.41,81.144,81.144,0,0,0-.125,10.518,79.1,79.1,0,0,0-8.547,8.535C63.511,211.24,59.541,205.763,61.02,201.828Zm10.824,35.89c-2.9,0-5.1-.779-6.294-2.422-2.472-3.4-.1-9.735,5.574-16.745a79.1,79.1,0,0,0,10.5,5.95,81.6,81.6,0,0,0,2.917,10.113C79.654,236.629,75.258,237.719,71.844,237.719Zm27.281,11.923a4.7,4.7,0,0,1-.632.042c-4.2,0-8.623-5.561-12-14.232a82.443,82.443,0,0,0,10-5.294,81.537,81.537,0,0,0,11.05,2.435C106.538,242.324,103.511,249.048,99.125,249.642Zm28.552-22.755c-1.206,3.209-5.813,4.8-12.342,4.8a50.79,50.79,0,0,1-6.155-.409,81.139,81.139,0,0,0,.125-10.518,79.137,79.137,0,0,0,8.547-8.535C125.187,217.475,129.157,222.952,127.677,226.887Z" transform="translate(-40.181 -133.378)" fill="#000e3f"/>
        </g>
        <g id="Group_28433" data-name="Group 28433" transform="translate(20.558 47.872)">
          <path id="Path_71854" data-name="Path 71854" d="M214.96,313.34a4.873,4.873,0,1,1,6.593-2.006A4.873,4.873,0,0,1,214.96,313.34Z" transform="translate(-155.887 -259.922)" fill="#fff"/>
          <path id="Path_71855" data-name="Path 71855" d="M65.865,299.93a4.873,4.873,0,1,1,6.594-2.006A4.873,4.873,0,0,1,65.865,299.93Z" transform="translate(-63.284 -251.593)" fill="#fff"/>
          <path id="Path_71856" data-name="Path 71856" d="M152.838,196.569a4.873,4.873,0,1,1,6.594-2.006A4.873,4.873,0,0,1,152.838,196.569Z" transform="translate(-117.303 -187.395)" fill="#fff"/>
        </g>
      </g>
      <g id="Group_28441" data-name="Group 28441" transform="translate(0 0)">
        <g id="Group_28437" data-name="Group 28437" transform="translate(153.607)">
          <g id="Group_28436" data-name="Group 28436" transform="translate(1.531 1.529)">
            <path id="Path_71857" data-name="Path 71857" d="M435.7,77.588a.15.15,0,0,0-.064.183l.707,1.874a.151.151,0,0,1-.232.178L409.507,59.56a.152.152,0,0,1,.106-.274l1.788.168.212.018a.157.157,0,0,0,.158-.207l-.813-2.146a.152.152,0,0,1,.157-.207l2.285.213a.157.157,0,0,0,.158-.207l-.711-1.878a.152.152,0,0,1,.236-.175l26.608,20.263a.151.151,0,0,1,.029.213.64.64,0,0,1-.1.052.122.122,0,0,1-.038.005l-1.995-.183a.152.152,0,0,0-.158.207c.18.5.334.9.458,1.215l.307.806c0,.008,0,.015,0,.015l.041.106a.114.114,0,0,1,0,.1v.008a.146.146,0,0,1-.157.1c-.637-.049-1.125-.107-1.489-.139l-.662-.061c-.008,0-.012,0-.015,0l-.114-.012A.108.108,0,0,0,435.7,77.588Z" transform="translate(-409.444 -54.831)" fill="#ffcf00"/>
            <g id="Group_28435" data-name="Group 28435" transform="translate(0 4.455)" opacity="0.5">
              <path id="Path_71858" data-name="Path 71858" d="M435.7,84.89c-.089.028-.1.08-.064.183l.707,1.874a.151.151,0,0,1-.232.178L409.507,66.863a.152.152,0,0,1,.106-.274l1.788.168a22.244,22.244,0,0,1,4.346,2.2,99.433,99.433,0,0,1,10.6,8.191c1.7,1.438,4.02,3.791,6.465,3.642.695-.044,1.283-.441,1.973-.55a5.1,5.1,0,0,1,2.127.072l2.783,2.12a.151.151,0,0,1,.029.213.636.636,0,0,1-.1.052.121.121,0,0,1-.038.005l-2-.183a.152.152,0,0,0-.158.207c.18.5.334.9.458,1.215.147.371.252.635.307.806,0,.008,0,.015,0,.015a.7.7,0,0,1,.04.208v.008c0,.078-.055.108-.157.1-.637-.049-1.125-.107-1.49-.139-.295-.033-.511-.055-.662-.061-.007,0-.012,0-.015,0A.881.881,0,0,0,435.7,84.89Z" transform="translate(-409.444 -66.589)" fill="#fd8a02"/>
            </g>
          </g>
          <path id="Path_71859" data-name="Path 71859" d="M410.48,52.326a.15.15,0,0,1,.091.032l26.608,20.263a.152.152,0,0,1-.089.273h-.018l-2-.183h-.017a.153.153,0,0,0-.141.208l.81,2.144a.153.153,0,0,1-.145.208h-.013l-2.283-.211h-.017a.153.153,0,0,0-.141.208l.71,1.876a.152.152,0,0,1-.234.175L407,57.053a.151.151,0,0,1,.091-.273h.016l1.788.167.208.019h.013a.152.152,0,0,0,.144-.208l-.81-2.144a.153.153,0,0,1,.141-.208h.017l2.283.211h.013a.152.152,0,0,0,.144-.208l-.708-1.879a.152.152,0,0,1,.142-.207m0-1.53a1.682,1.682,0,0,0-1.632,2.1l-.1-.009c-.047,0-.111-.008-.158-.008a1.683,1.683,0,0,0-1.58,2.259l.043.114a1.682,1.682,0,0,0-.982,3.021l26.607,20.262a1.682,1.682,0,0,0,2.651-1.75l.1.009c.047,0,.107.007.154.007a1.683,1.683,0,0,0,1.571-2.3l-.03-.08a1.683,1.683,0,0,0,.986-3.02L411.5,51.141a1.692,1.692,0,0,0-1.019-.345Z" transform="translate(-405.404 -50.796)" fill="#000e3f"/>
        </g>
        <g id="Group_28440" data-name="Group 28440" transform="translate(0 18.51)">
          <g id="Group_28439" data-name="Group 28439" transform="translate(1.53 1.531)">
            <path id="Path_71860" data-name="Path 71860" d="M8.568,131.666a.15.15,0,0,1,.111.16L8.5,133.821a.151.151,0,0,0,.271.11l20.263-26.607a.152.152,0,0,0-.175-.236l-1.679.638-.2.074a.157.157,0,0,1-.207-.158l.213-2.285a.152.152,0,0,0-.207-.158l-2.146.813a.157.157,0,0,1-.207-.158l.186-2a.152.152,0,0,0-.274-.106L4.071,130.355a.151.151,0,0,0,.029.213.611.611,0,0,0,.112.024.137.137,0,0,0,.038,0l1.874-.707a.152.152,0,0,1,.207.158c-.041.528-.084.952-.119,1.293l-.081.859,0,.015-.012.114a.115.115,0,0,0,.028.1v.008a.146.146,0,0,0,.178.053c.6-.217,1.056-.4,1.4-.53l.623-.235c.008,0,.011-.005.015,0l.106-.041A.1.1,0,0,1,8.568,131.666Z" transform="translate(-4.04 -103.686)" fill="#ffcf00"/>
            <g id="Group_28438" data-name="Group 28438" transform="translate(0 3.392)" opacity="0.5">
              <path id="Path_71861" data-name="Path 71861" d="M8.568,137.226c.093,0,.119.05.111.16L8.5,139.38a.151.151,0,0,0,.271.11l20.263-26.607a.152.152,0,0,0-.175-.236l-1.679.638a22.231,22.231,0,0,0-3.605,3.275,99.45,99.45,0,0,0-8.036,10.713c-1.257,1.838-2.867,4.723-5.264,5.229-.681.142-1.354-.084-2.048-.005a5.109,5.109,0,0,0-2.031.635l-2.12,2.783a.151.151,0,0,0,.029.213.614.614,0,0,0,.112.024.138.138,0,0,0,.038,0l1.874-.707a.152.152,0,0,1,.207.158c-.041.528-.084.952-.119,1.293-.043.4-.075.68-.081.859l0,.015a.71.71,0,0,0,.017.211v.008c.025.074.082.089.178.053.6-.217,1.056-.4,1.4-.53.275-.111.478-.189.623-.235.008,0,.011-.005.015,0A.884.884,0,0,1,8.568,137.226Z" transform="translate(-4.04 -112.638)" fill="#fd8a02"/>
            </g>
          </g>
          <path id="Path_71862" data-name="Path 71862" d="M21.946,101.178a.15.15,0,0,1,.152.167l-.183,2a.152.152,0,0,0,.152.168.159.159,0,0,0,.055-.01l2.144-.811a.158.158,0,0,1,.056-.011.154.154,0,0,1,.151.169l-.211,2.282a.152.152,0,0,0,.152.167.159.159,0,0,0,.055-.01l.2-.074,1.68-.636a.165.165,0,0,1,.057-.011.152.152,0,0,1,.118.244L6.257,131.421a.149.149,0,0,1-.12.061.151.151,0,0,1-.152-.167l.185-2a.154.154,0,0,0-.151-.169.156.156,0,0,0-.056.011l-2.144.81a.159.159,0,0,1-.055.01.152.152,0,0,1-.152-.167l.211-2.283a.154.154,0,0,0-.151-.169.149.149,0,0,0-.056.011l-1.879.708a.157.157,0,0,1-.057.011.153.153,0,0,1-.118-.245l20.262-26.607a.156.156,0,0,1,.122-.06m0-1.531h0a1.669,1.669,0,0,0-1.338.663L.346,126.918A1.682,1.682,0,0,0,2.1,129.569l-.009.1a1.685,1.685,0,0,0,2.257,1.737l.111-.042a1.68,1.68,0,0,0,1.682,1.647,1.67,1.67,0,0,0,1.338-.664L27.74,105.742a1.682,1.682,0,0,0-1.749-2.651l.009-.1a1.7,1.7,0,0,0-.44-1.3,1.68,1.68,0,0,0-1.851-.424l-.075.028a1.687,1.687,0,0,0-1.686-1.65Z" transform="translate(0 -99.647)" fill="#000e3f"/>
        </g>
      </g>
      <g id="Group_28443" data-name="Group 28443" transform="translate(81.484 70.01)">
        <g id="Group_28442" data-name="Group 28442" transform="translate(1.532 1.53)">
          <path id="Path_71863" data-name="Path 71863" d="M219.271,316.116a1.957,1.957,0,0,0,3.572,1.6c.023-.053-.5,1.168,17.8-41.431,4.894-11.384,6.977-16.482,14.929-34.985a1.215,1.215,0,0,0-2.225-.977l-21.489,47.73Z" transform="translate(-219.1 -239.607)" fill="#ffcf00"/>
          <path id="Path_71864" data-name="Path 71864" d="M219.271,376.242a1.957,1.957,0,0,0,3.572,1.6c.023-.053-.5,1.169,17.8-41.431a100.651,100.651,0,0,1-8.785,11.768Z" transform="translate(-219.1 -299.733)" fill="#fd8a02" opacity="0.5"/>
        </g>
        <path id="Path_71865" data-name="Path 71865" d="M251.951,237.1a1.215,1.215,0,0,1,1.115,1.7c-7.952,18.5-10.034,23.6-14.929,34.985-18.308,42.6-17.781,41.379-17.8,41.431a1.957,1.957,0,0,1-3.572-1.6l12.592-28.061,21.489-47.73a1.215,1.215,0,0,1,1.109-.718m0-1.531a2.752,2.752,0,0,0-2.506,1.621l-21.489,47.729-12.593,28.063a3.488,3.488,0,0,0,6.365,2.856l.132-.306c.512-1.192,3.223-7.5,17.683-41.148,2.17-5.048,3.764-8.8,5.609-13.152,2.294-5.406,4.893-11.533,9.32-21.833a2.744,2.744,0,0,0-2.521-3.83Z" transform="translate(-215.056 -235.568)" fill="#000e3f"/>
      </g>
    </g>
    <g id="Group_28445" data-name="Group 28445" transform="translate(107.444 126.636)">
      <path id="Path_71866" data-name="Path 71866" d="M389.634,421.72l4.229.406a.824.824,0,0,0,.71-.29l2.732-3.254a.824.824,0,0,1,1.436.351l.921,4.148a.824.824,0,0,0,.5.585l3.939,1.593a.824.824,0,0,1,.109,1.474l-3.66,2.158a.823.823,0,0,0-.4.652l-.3,4.238a.824.824,0,0,1-1.368.56l-3.183-2.814a.824.824,0,0,0-.745-.182l-4.123,1.026a.824.824,0,0,1-.955-1.128l1.693-3.9a.823.823,0,0,0-.057-.765l-2.25-3.6A.824.824,0,0,1,389.634,421.72Z" transform="translate(-348.885 -405.681)" fill="#fd8a02"/>
      <path id="Path_71867" data-name="Path 71867" d="M480.349,385.4l1.769,3.277a.723.723,0,0,0,.558.375l3.7.4a.722.722,0,0,1,.445,1.216l-2.57,2.695a.723.723,0,0,0-.185.646l.763,3.645a.722.722,0,0,1-1.02.8l-3.357-1.612a.723.723,0,0,0-.672.024l-3.231,1.852a.722.722,0,0,1-1.075-.722l.5-3.691a.724.724,0,0,0-.231-.631l-2.76-2.5a.722.722,0,0,1,.355-1.245l3.663-.669a.722.722,0,0,0,.529-.414l1.526-3.4A.722.722,0,0,1,480.349,385.4Z" transform="translate(-401.066 -385.017)" fill="#fd8a02"/>
      <path id="Path_71868" data-name="Path 71868" d="M283.98,428.384l3.046-1.146a.632.632,0,0,0,.39-.439l.783-3.158a.631.631,0,0,1,1.106-.242l2.031,2.543a.632.632,0,0,0,.538.236l3.246-.232a.631.631,0,0,1,.572.977L293.9,429.64a.631.631,0,0,0-.058.585l1.223,3.016a.631.631,0,0,1-.753.846l-3.138-.863a.631.631,0,0,0-.574.126l-2.49,2.1a.631.631,0,0,1-1.037-.454l-.149-3.251a.631.631,0,0,0-.3-.507l-2.762-1.72A.632.632,0,0,1,283.98,428.384Z" transform="translate(-283.571 -408.709)" fill="#fd8a02"/>
    </g>
  </g>
</svg>
