<svg xmlns="http://www.w3.org/2000/svg" width="60" height="60" viewBox="0 0 60 60">
  <g id="Group_77467" data-name="Group 77467" transform="translate(-195 -1622)">
    <circle id="Ellipse_1249" data-name="Ellipse 1249" cx="30" cy="30" r="30" transform="translate(195 1622)" fill="#fcc048"/>
    <g id="science_icon" data-name="science icon" transform="translate(213.018 1639.993)">
      <path id="Path_96312" data-name="Path 96312" d="M22.4,1.592C20.588-.215,17.4-1.167,11.983,2.6,6.571-1.166,3.378-.215,1.57,1.592S-1.19,6.59,2.578,12C-1.19,17.41-.237,20.6,1.57,22.408a5.271,5.271,0,0,0,3.844,1.6c1.7,0,3.857-.7,6.569-2.594,2.713,1.889,4.868,2.595,6.569,2.595a5.266,5.266,0,0,0,3.844-1.6c1.8-1.809,2.761-5-1.008-10.409C25.157,6.59,24.2,3.4,22.4,1.592ZM18.472,3.008a2.446,2.446,0,0,1,1.8.707c1.355,1.354.585,3.6-.823,5.8-.706-.821-1.487-1.675-2.4-2.584s-1.764-1.689-2.585-2.395a8.148,8.148,0,0,1,4.008-1.528ZM17.617,12c-.968,1.171-1.958,2.214-2.688,2.944s-1.775,1.72-2.946,2.687c-1.171-.967-2.215-1.956-2.945-2.687S7.317,13.171,6.35,12c.967-1.171,1.957-2.214,2.688-2.944s1.773-1.721,2.945-2.688c1.172.967,2.215,1.957,2.946,2.688S16.649,10.829,17.617,12ZM3.694,3.715a2.445,2.445,0,0,1,1.8-.707A8.141,8.141,0,0,1,9.5,4.538c-.822.706-1.676,1.486-2.585,2.4S5.223,8.7,4.517,9.517C3.11,7.313,2.339,5.069,3.694,3.715Zm0,16.57c-1.355-1.354-.584-3.6.823-5.8.706.821,1.487,1.675,2.4,2.584s1.762,1.7,2.579,2.4C7.29,20.871,5.048,21.638,3.694,20.285Zm16.578,0c-1.355,1.354-3.6.586-5.8-.818.818-.7,1.676-1.5,2.581-2.4s1.69-1.763,2.4-2.584C20.857,16.687,21.627,18.931,20.272,20.285Z"/>
      <circle id="Ellipse_1253" data-name="Ellipse 1253" cx="2" cy="2" r="2" transform="translate(10 10)"/>
    </g>
  </g>
</svg>
