<svg id="Group_77451" data-name="Group 77451" xmlns="http://www.w3.org/2000/svg" width="267" height="253" viewBox="0 0 267 253">
  <rect id="Rectangle_12258" data-name="Rectangle 12258" width="267" height="253" rx="12" fill="#e36352"/>
  <g id="computer-engineer" transform="translate(48.489 41.488)">
    <g id="Group_28499" data-name="Group 28499">
      <path id="Path_71898" data-name="Path 71898" d="M85.011,170.023a84.979,84.979,0,0,1-69.464-36,3.6,3.6,0,0,1-3.173-3.572v-1.257a85.057,85.057,0,0,1,0-88.363V29.177a3.6,3.6,0,0,1,3.6-3.6H24.23A85.015,85.015,0,1,1,85.011,170.023Z" transform="translate(0 0)" fill="#fff"/>
    </g>
    <g id="Group_28618" data-name="Group 28618" transform="translate(3.513 3.332)">
      <g id="Group_28501" data-name="Group 28501">
        <g id="Group_28500" data-name="Group 28500">
          <path id="Path_71899" data-name="Path 71899" d="M174.063,91.777a81.466,81.466,0,0,1-5.879,30.493l-72.1,31.554L16.459,122.27a81.75,81.75,0,1,1,157.6-30.493Z" transform="translate(-10.58 -10.035)" fill="#6e72ff"/>
        </g>
      </g>
      <g id="Group_28617" data-name="Group 28617" transform="translate(5.879 6.78)">
        <g id="Group_28503" data-name="Group 28503" transform="translate(0 105.454)">
          <g id="Group_28502" data-name="Group 28502">
            <path id="Path_71900" data-name="Path 71900" d="M180.009,348.014a81.774,81.774,0,0,1-151.726,0Z" transform="translate(-28.283 -348.014)" fill="#f8bdff"/>
          </g>
        </g>
        <g id="Group_28599" data-name="Group 28599" transform="translate(6.496 18.8)">
          <g id="Group_28570" data-name="Group 28570">
            <g id="Group_28508" data-name="Group 28508">
              <g id="Group_28505" data-name="Group 28505">
                <g id="Group_28504" data-name="Group 28504">
                  <path id="Path_71901" data-name="Path 71901" d="M79.861,188.995H48.171a.326.326,0,0,1-.327-.327V87.393a.328.328,0,0,1,.327-.327h31.69a.209.209,0,0,0-.209.209l11.52,45.12-11.52,56.393A.208.208,0,0,0,79.861,188.995Z" transform="translate(-47.844 -87.066)" fill="#412945"/>
                </g>
              </g>
              <g id="Group_28507" data-name="Group 28507" transform="translate(31.808)">
                <g id="Group_28506" data-name="Group 28506">
                  <path id="Path_71902" data-name="Path 71902" d="M163.456,189H143.837a.208.208,0,0,1-.208-.208V87.274a.208.208,0,0,1,.208-.208h19.619a.209.209,0,0,1,.208.208V188.788A.209.209,0,0,1,163.456,189Z" transform="translate(-143.629 -87.066)" fill="#e36352"/>
                </g>
              </g>
            </g>
            <g id="Group_28569" data-name="Group 28569" transform="translate(2.998 8.455)">
              <g id="Group_28511" data-name="Group 28511">
                <g id="Group_28510" data-name="Group 28510">
                  <g id="Group_28509" data-name="Group 28509">
                    <path id="Path_71903" data-name="Path 71903" d="M67.221,133.675H56.872V112.528H67.221Zm-9.758-.592h9.166V113.12H57.464Z" transform="translate(-56.872 -112.528)" fill="#f7ede5"/>
                  </g>
                </g>
              </g>
              <g id="Group_28514" data-name="Group 28514" transform="translate(0.021 22.523)">
                <g id="Group_28513" data-name="Group 28513">
                  <g id="Group_28512" data-name="Group 28512">
                    <path id="Path_71904" data-name="Path 71904" d="M83.38,187.612H56.934v-7.258H83.38Zm-25.9-.551H82.829V180.9H57.485Z" transform="translate(-56.934 -180.354)" fill="#f7ede5"/>
                  </g>
                </g>
              </g>
              <g id="Group_28530" data-name="Group 28530" transform="translate(0.296 34.807)">
                <g id="Group_28517" data-name="Group 28517">
                  <g id="Group_28516" data-name="Group 28516">
                    <g id="Group_28515" data-name="Group 28515">
                      <rect id="Rectangle_12272" data-name="Rectangle 12272" width="11.54" height="3.733" fill="#f7ede5"/>
                    </g>
                  </g>
                </g>
                <g id="Group_28520" data-name="Group 28520" transform="translate(0 6.491)">
                  <g id="Group_28519" data-name="Group 28519">
                    <g id="Group_28518" data-name="Group 28518">
                      <rect id="Rectangle_12273" data-name="Rectangle 12273" width="11.54" height="3.732" fill="#f7ede5"/>
                    </g>
                  </g>
                </g>
                <g id="Group_28523" data-name="Group 28523" transform="translate(0 12.982)">
                  <g id="Group_28522" data-name="Group 28522">
                    <g id="Group_28521" data-name="Group 28521">
                      <rect id="Rectangle_12274" data-name="Rectangle 12274" width="11.54" height="3.733" fill="#f7ede5"/>
                    </g>
                  </g>
                </g>
                <g id="Group_28526" data-name="Group 28526" transform="translate(0 19.473)">
                  <g id="Group_28525" data-name="Group 28525">
                    <g id="Group_28524" data-name="Group 28524">
                      <rect id="Rectangle_12275" data-name="Rectangle 12275" width="11.54" height="3.733" fill="#f7ede5"/>
                    </g>
                  </g>
                </g>
                <g id="Group_28529" data-name="Group 28529" transform="translate(0 25.964)">
                  <g id="Group_28528" data-name="Group 28528">
                    <g id="Group_28527" data-name="Group 28527">
                      <rect id="Rectangle_12276" data-name="Rectangle 12276" width="11.54" height="3.733" fill="#f7ede5"/>
                    </g>
                  </g>
                </g>
              </g>
              <g id="Group_28533" data-name="Group 28533" transform="translate(15.387)">
                <g id="Group_28532" data-name="Group 28532">
                  <g id="Group_28531" data-name="Group 28531">
                    <path id="Path_71905" data-name="Path 71905" d="M113.557,133.675H103.208V112.528h10.349Zm-9.758-.592h9.166V113.12H103.8Z" transform="translate(-103.208 -112.528)" fill="#f7ede5"/>
                  </g>
                </g>
              </g>
              <g id="Group_28536" data-name="Group 28536" transform="translate(0.718 72.78)">
                <g id="Group_28535" data-name="Group 28535">
                  <g id="Group_28534" data-name="Group 28534">
                    <rect id="Rectangle_12277" data-name="Rectangle 12277" width="2.861" height="12.171" fill="#f7ede5"/>
                  </g>
                </g>
              </g>
              <g id="Group_28539" data-name="Group 28539" transform="translate(6.441 72.78)">
                <g id="Group_28538" data-name="Group 28538">
                  <g id="Group_28537" data-name="Group 28537">
                    <rect id="Rectangle_12278" data-name="Rectangle 12278" width="2.861" height="12.171" fill="#f7ede5"/>
                  </g>
                </g>
              </g>
              <g id="Group_28542" data-name="Group 28542" transform="translate(12.165 72.78)">
                <g id="Group_28541" data-name="Group 28541">
                  <g id="Group_28540" data-name="Group 28540">
                    <rect id="Rectangle_12279" data-name="Rectangle 12279" width="2.861" height="12.171" fill="#f7ede5"/>
                  </g>
                </g>
              </g>
              <g id="Group_28545" data-name="Group 28545" transform="translate(17.888 72.78)">
                <g id="Group_28544" data-name="Group 28544">
                  <g id="Group_28543" data-name="Group 28543">
                    <rect id="Rectangle_12280" data-name="Rectangle 12280" width="2.861" height="12.171" fill="#f7ede5"/>
                  </g>
                </g>
              </g>
              <g id="Group_28548" data-name="Group 28548" transform="translate(23.611 72.78)">
                <g id="Group_28547" data-name="Group 28547">
                  <g id="Group_28546" data-name="Group 28546">
                    <rect id="Rectangle_12281" data-name="Rectangle 12281" width="2.861" height="12.171" fill="#f7ede5"/>
                  </g>
                </g>
              </g>
              <g id="Group_28558" data-name="Group 28558" transform="translate(14.791 35.619)">
                <g id="Group_28551" data-name="Group 28551">
                  <g id="Group_28550" data-name="Group 28550">
                    <g id="Group_28549" data-name="Group 28549">
                      <ellipse id="Ellipse_1240" data-name="Ellipse 1240" cx="2.393" cy="2.759" rx="2.393" ry="2.759" fill="#f7ede5"/>
                    </g>
                  </g>
                </g>
                <g id="Group_28554" data-name="Group 28554" transform="translate(0 10.548)">
                  <g id="Group_28553" data-name="Group 28553">
                    <g id="Group_28552" data-name="Group 28552">
                      <ellipse id="Ellipse_1241" data-name="Ellipse 1241" cx="2.393" cy="2.759" rx="2.393" ry="2.759" fill="#f7ede5"/>
                    </g>
                  </g>
                </g>
                <g id="Group_28557" data-name="Group 28557" transform="translate(0 21.096)">
                  <g id="Group_28556" data-name="Group 28556">
                    <g id="Group_28555" data-name="Group 28555">
                      <ellipse id="Ellipse_1242" data-name="Ellipse 1242" cx="2.393" cy="2.759" rx="2.393" ry="2.759" fill="#f7ede5"/>
                    </g>
                  </g>
                </g>
              </g>
              <g id="Group_28568" data-name="Group 28568" transform="translate(21.547 35.619)">
                <g id="Group_28561" data-name="Group 28561">
                  <g id="Group_28560" data-name="Group 28560">
                    <g id="Group_28559" data-name="Group 28559">
                      <ellipse id="Ellipse_1243" data-name="Ellipse 1243" cx="2.393" cy="2.759" rx="2.393" ry="2.759" fill="#f7ede5"/>
                    </g>
                  </g>
                </g>
                <g id="Group_28564" data-name="Group 28564" transform="translate(0 10.548)">
                  <g id="Group_28563" data-name="Group 28563">
                    <g id="Group_28562" data-name="Group 28562">
                      <ellipse id="Ellipse_1244" data-name="Ellipse 1244" cx="2.393" cy="2.759" rx="2.393" ry="2.759" fill="#f7ede5"/>
                    </g>
                  </g>
                </g>
                <g id="Group_28567" data-name="Group 28567" transform="translate(0 21.096)">
                  <g id="Group_28566" data-name="Group 28566">
                    <g id="Group_28565" data-name="Group 28565">
                      <ellipse id="Ellipse_1245" data-name="Ellipse 1245" cx="2.393" cy="2.759" rx="2.393" ry="2.759" fill="#f7ede5"/>
                    </g>
                  </g>
                </g>
              </g>
            </g>
          </g>
          <g id="Group_28577" data-name="Group 28577" transform="translate(43.974 21.538)">
            <g id="Group_28572" data-name="Group 28572" transform="translate(0.777 0)">
              <g id="Group_28571" data-name="Group 28571">
                <path id="Path_71906" data-name="Path 71906" d="M280.88,154.356v55.995a2.432,2.432,0,0,1-2.432,2.432H239.169l-3.46,10.69H253.09v1.493H222.814l4.281-12.183H185.089L182.6,181.266l2.485-29.342h93.358A2.431,2.431,0,0,1,280.88,154.356Z" transform="translate(-182.604 -151.924)" fill="#412945"/>
              </g>
            </g>
            <g id="Group_28574" data-name="Group 28574" transform="translate(7.801 3.182)">
              <g id="Group_28573" data-name="Group 28573">
                <path id="Path_71907" data-name="Path 71907" d="M288.793,215.069H205.9a2.141,2.141,0,0,1-2.141-2.141V163.648a2.141,2.141,0,0,1,2.141-2.141h82.895a2.141,2.141,0,0,1,2.141,2.141v49.281A2.141,2.141,0,0,1,288.793,215.069Z" transform="translate(-203.758 -161.507)" fill="#f7ede5"/>
              </g>
            </g>
            <g id="Group_28576" data-name="Group 28576">
              <g id="Group_28575" data-name="Group 28575">
                <path id="Path_71908" data-name="Path 71908" d="M183.527,151.924v60.859h-.83a2.432,2.432,0,0,1-2.432-2.432V154.356a2.431,2.431,0,0,1,2.432-2.432Z" transform="translate(-180.265 -151.924)" fill="#f8bdff"/>
              </g>
            </g>
          </g>
          <g id="Group_28593" data-name="Group 28593" transform="translate(57.605 2.422)">
            <g id="Group_28582" data-name="Group 28582">
              <g id="Group_28579" data-name="Group 28579" transform="translate(0 2.646)">
                <g id="Group_28578" data-name="Group 28578">
                  <path id="Path_71909" data-name="Path 71909" d="M292.186,105.692v37.817H221.313V105.692l39.664-3.363Z" transform="translate(-221.313 -102.329)" fill="#fff"/>
                </g>
              </g>
              <g id="Group_28581" data-name="Group 28581">
                <g id="Group_28580" data-name="Group 28580">
                  <rect id="Rectangle_12282" data-name="Rectangle 12282" width="70.873" height="6.01" fill="#b5e1e8"/>
                </g>
              </g>
            </g>
            <g id="Group_28587" data-name="Group 28587" transform="translate(1.918 2.002)">
              <g id="Group_28584" data-name="Group 28584">
                <g id="Group_28583" data-name="Group 28583">
                  <path id="Path_71910" data-name="Path 71910" d="M229.761,101.725a1.336,1.336,0,1,1-1.336-1.336A1.336,1.336,0,0,1,229.761,101.725Z" transform="translate(-227.09 -100.389)" fill="#412945"/>
                </g>
              </g>
              <g id="Group_28586" data-name="Group 28586" transform="translate(4.842)">
                <g id="Group_28585" data-name="Group 28585">
                  <path id="Path_71911" data-name="Path 71911" d="M244.342,101.725a1.336,1.336,0,1,1-1.336-1.336A1.336,1.336,0,0,1,244.342,101.725Z" transform="translate(-241.671 -100.389)" fill="#412945"/>
                </g>
              </g>
            </g>
            <g id="Group_28592" data-name="Group 28592" transform="translate(17.838 8.797)">
              <g id="Group_28589" data-name="Group 28589" transform="translate(19.805)">
                <g id="Group_28588" data-name="Group 28588">
                  <path id="Path_71912" data-name="Path 71912" d="M336.438,149.81a1.218,1.218,0,0,1-.852-2.088l12.374-12.116-12.927-12.669a1.217,1.217,0,0,1,1.7-1.739l13.815,13.538a1.217,1.217,0,0,1,0,1.739L337.29,149.463A1.213,1.213,0,0,1,336.438,149.81Z" transform="translate(-334.668 -120.85)" fill="#412945"/>
                </g>
              </g>
              <g id="Group_28591" data-name="Group 28591" transform="translate(0 0)">
                <g id="Group_28590" data-name="Group 28590">
                  <path id="Path_71913" data-name="Path 71913" d="M289.509,149.811a1.214,1.214,0,0,1-.852-.348l-13.262-12.986a1.217,1.217,0,0,1,0-1.739L289.209,121.2a1.217,1.217,0,1,1,1.7,1.739l-12.927,12.669,12.374,12.116a1.218,1.218,0,0,1-.851,2.088Z" transform="translate(-275.029 -120.851)" fill="#412945"/>
                </g>
              </g>
            </g>
          </g>
          <g id="Group_28598" data-name="Group 28598" transform="translate(44.265 96.754)">
            <g id="Group_28595" data-name="Group 28595">
              <g id="Group_28594" data-name="Group 28594">
                <path id="Path_71914" data-name="Path 71914" d="M243.264,395.116v-10.23h7.442a11.939,11.939,0,0,0-21.711,1.1H203.2a11.939,11.939,0,0,0-21.711-1.1h7.442v10.23h-7.786a11.938,11.938,0,0,0,21.147,1.463H229.9a11.938,11.938,0,0,0,21.147-1.463Z" transform="translate(-181.142 -378.428)" fill="#412945"/>
              </g>
            </g>
            <g id="Group_28597" data-name="Group 28597" transform="translate(21.554 9.913)">
              <g id="Group_28596" data-name="Group 28596">
                <path id="Path_71915" data-name="Path 71915" d="M271.977,413.5h-25.6a.327.327,0,0,1-.327-.327v-4.563a.327.327,0,0,1,.327-.327h25.6a.327.327,0,0,1,.327.327v4.563A.327.327,0,0,1,271.977,413.5Zm-25.274-.654H271.65v-3.909H246.7Z" transform="translate(-246.049 -408.28)" fill="#f8bdff"/>
              </g>
            </g>
          </g>
        </g>
        <g id="Group_28616" data-name="Group 28616" transform="translate(25.673)">
          <g id="Group_28603" data-name="Group 28603" transform="translate(23.474)">
            <g id="Group_28602" data-name="Group 28602">
              <g id="Group_28601" data-name="Group 28601">
                <g id="Group_28600" data-name="Group 28600">
                  <path id="Path_71916" data-name="Path 71916" d="M186.616,36.183l5.15,1.8a.341.341,0,0,1,.008.641l-5.166,1.945a.34.34,0,0,0-.2.2l-1.958,5.2a.341.341,0,0,1-.638,0l-1.958-5.2a.342.342,0,0,0-.2-.2L176.5,38.626a.341.341,0,0,1,.011-.642l5.3-1.8a.342.342,0,0,0,.213-.213l1.8-5.287a.341.341,0,0,1,.643-.008l1.943,5.3A.343.343,0,0,0,186.616,36.183Z" transform="translate(-176.282 -30.453)" fill="#f7ede5"/>
                </g>
              </g>
            </g>
          </g>
          <g id="Group_28607" data-name="Group 28607" transform="translate(78.238 10.351)">
            <g id="Group_28606" data-name="Group 28606">
              <g id="Group_28605" data-name="Group 28605">
                <g id="Group_28604" data-name="Group 28604">
                  <path id="Path_71917" data-name="Path 71917" d="M351.529,67.354l5.151,1.8a.341.341,0,0,1,.008.641l-5.166,1.945a.34.34,0,0,0-.2.2l-1.958,5.2a.341.341,0,0,1-.638,0l-1.958-5.2a.341.341,0,0,0-.2-.2L341.416,69.8a.341.341,0,0,1,.011-.642l5.3-1.8a.341.341,0,0,0,.213-.213l1.8-5.287a.341.341,0,0,1,.643-.008l1.943,5.3A.34.34,0,0,0,351.529,67.354Z" transform="translate(-341.195 -61.623)" fill="#f7ede5"/>
                </g>
              </g>
            </g>
          </g>
          <g id="Group_28611" data-name="Group 28611" transform="translate(102.849 104.352)">
            <g id="Group_28610" data-name="Group 28610">
              <g id="Group_28609" data-name="Group 28609">
                <g id="Group_28608" data-name="Group 28608">
                  <path id="Path_71918" data-name="Path 71918" d="M425.64,350.423l5.151,1.8a.341.341,0,0,1,.008.641l-5.166,1.945a.341.341,0,0,0-.2.2l-1.958,5.2a.341.341,0,0,1-.638,0l-1.958-5.2a.34.34,0,0,0-.2-.2l-5.154-1.941a.341.341,0,0,1,.01-.642l5.3-1.8a.342.342,0,0,0,.213-.213l1.8-5.287a.341.341,0,0,1,.643-.008l1.943,5.3A.341.341,0,0,0,425.64,350.423Z" transform="translate(-415.306 -344.693)" fill="#f7ede5"/>
                </g>
              </g>
            </g>
          </g>
          <g id="Group_28615" data-name="Group 28615" transform="translate(0 117.04)">
            <g id="Group_28614" data-name="Group 28614">
              <g id="Group_28613" data-name="Group 28613">
                <g id="Group_28612" data-name="Group 28612">
                  <path id="Path_71919" data-name="Path 71919" d="M115.926,388.634l5.15,1.8a.341.341,0,0,1,.008.641l-5.166,1.945a.341.341,0,0,0-.2.2l-1.958,5.2a.341.341,0,0,1-.638,0l-1.958-5.2a.341.341,0,0,0-.2-.2l-5.154-1.941a.341.341,0,0,1,.011-.642l5.3-1.8a.342.342,0,0,0,.213-.213l1.8-5.287a.341.341,0,0,1,.643-.008l1.943,5.3A.34.34,0,0,0,115.926,388.634Z" transform="translate(-105.592 -382.904)" fill="#f7ede5"/>
                </g>
              </g>
            </g>
          </g>
        </g>
      </g>
    </g>
  </g>
</svg>
