<svg xmlns="http://www.w3.org/2000/svg" xmlns:xlink="http://www.w3.org/1999/xlink" width="9.672" height="6.448" viewBox="0 0 9.672 6.448">
  <defs>
    <linearGradient id="linear-gradient" x1="0.958" x2="0.138" y2="1.051" gradientUnits="objectBoundingBox">
      <stop offset="0" stop-color="#4e6883"/>
      <stop offset="1" stop-color="#3e5369"/>
    </linearGradient>
  </defs>
  <g id="Group_25107" data-name="Group 25107" transform="translate(0 0)">
    <path id="Path_25" data-name="Path 25" d="M1425.414,399.658l-1.988-.176a.816.816,0,0,0,0,1.631l1.988-.176a.64.64,0,0,0,0-1.279" transform="translate(-1422.62 -397.074)" opacity="0.4" fill="url(#linear-gradient)"/>
    <path id="Path_26" data-name="Path 26" d="M1416.255,397.617c-.027-.032-.145-.164-.253-.274a11.971,11.971,0,0,0-3.165-2.162,2.647,2.647,0,0,0-.645-.181,1.075,1.075,0,0,0-.489.118,1.021,1.021,0,0,0-.435.486,5.414,5.414,0,0,0-.14.572,12.631,12.631,0,0,0-.129,2.044,14.727,14.727,0,0,0,.113,1.982,4.433,4.433,0,0,0,.188.714.977.977,0,0,0,.86.532h.032a2.684,2.684,0,0,0,.72-.219,11.82,11.82,0,0,0,3.095-2.131,3.267,3.267,0,0,0,.263-.3.956.956,0,0,0,.188-.572.983.983,0,0,0-.2-.611" transform="translate(-1406.787 -395)" fill="url(#linear-gradient)"/>
  </g>
</svg>
