<svg xmlns="http://www.w3.org/2000/svg" width="51" height="52" viewBox="0 0 51 52">
  <g id="Group_77328" data-name="Group 77328" transform="translate(0.036 0.451)">
    <ellipse id="Ellipse_1254" data-name="Ellipse 1254" cx="25.5" cy="26" rx="25.5" ry="26" transform="translate(-0.036 -0.451)" fill="#465d76" opacity="0.1"/>
    <path id="Path_26" data-name="Path 26" d="M1411.5,401.439c.066-.078.357-.4.621-.674a29.455,29.455,0,0,1,7.788-5.32A6.516,6.516,0,0,1,1421.5,395a2.647,2.647,0,0,1,1.2.29,2.51,2.51,0,0,1,1.071,1.2,13.274,13.274,0,0,1,.344,1.407,31.056,31.056,0,0,1,.318,5.031,36.231,36.231,0,0,1-.278,4.876,10.948,10.948,0,0,1-.463,1.756,2.4,2.4,0,0,1-2.115,1.31h-.08a6.611,6.611,0,0,1-1.771-.539,29.094,29.094,0,0,1-7.616-5.244,8.03,8.03,0,0,1-.648-.733,2.352,2.352,0,0,1-.463-1.407,2.421,2.421,0,0,1,.5-1.5" transform="translate(-1393.385 -377.384)" fill="#002"/>
  </g>
</svg>
