<svg xmlns="http://www.w3.org/2000/svg" width="51" height="52" viewBox="0 0 51 52">
  <g id="Group_77329" data-name="Group 77329" transform="translate(-0.134 0.451)">
    <ellipse id="Ellipse_1254" data-name="Ellipse 1254" cx="25.5" cy="26" rx="25.5" ry="26" transform="translate(0.134 -0.451)" fill="#465d76" opacity="0.1"/>
    <path id="Path_26" data-name="Path 26" d="M1423.931,401.439c-.066-.078-.357-.4-.621-.674a29.455,29.455,0,0,0-7.788-5.32,6.513,6.513,0,0,0-1.586-.444,2.646,2.646,0,0,0-1.2.29,2.511,2.511,0,0,0-1.071,1.2,13.274,13.274,0,0,0-.344,1.407,31.086,31.086,0,0,0-.318,5.031,36.228,36.228,0,0,0,.278,4.876,10.9,10.9,0,0,0,.463,1.756,2.4,2.4,0,0,0,2.115,1.31h.08a6.609,6.609,0,0,0,1.771-.539,29.093,29.093,0,0,0,7.616-5.244,8.05,8.05,0,0,0,.648-.733,2.352,2.352,0,0,0,.463-1.407,2.42,2.42,0,0,0-.5-1.5" transform="translate(-1390.672 -377.384)" fill="#002"/>
  </g>
</svg>
