<svg xmlns="http://www.w3.org/2000/svg" width="10" height="10" viewBox="0 0 10 10">
  <path id="students" d="M2.708,9.167V10H0V9.167a.833.833,0,0,1,.833-.833H1.875A.833.833,0,0,1,2.708,9.167Zm6.458-.833H8.125a.833.833,0,0,0-.833.833V10H10V9.167A.833.833,0,0,0,9.167,8.333Zm-3.542,0H4.375a.833.833,0,0,0-.833.833V10H6.458V9.167A.833.833,0,0,0,5.625,8.333ZM10,1.458A1.46,1.46,0,0,0,8.542,0H1.458A1.46,1.46,0,0,0,0,1.458V5.572a1.866,1.866,0,0,1,1.139-.527c.037-.007.073-.02.111-.024V1.458a.209.209,0,0,1,.208-.208H8.542a.209.209,0,0,1,.208.208V5.021c.055.006.105.023.159.034A1.862,1.862,0,0,1,10,5.635ZM9.7,6.875A1.042,1.042,0,1,0,8.654,7.917,1.042,1.042,0,0,0,9.7,6.875Zm-3.654,0A1.042,1.042,0,1,0,5,7.917,1.042,1.042,0,0,0,6.042,6.875Zm-3.654,0A1.042,1.042,0,1,0,1.346,7.917,1.042,1.042,0,0,0,2.388,6.875Z"/>
</svg>
