<svg xmlns="http://www.w3.org/2000/svg" width="65.236" height="40.75" viewBox="0 0 65.236 40.75">
  <g id="Group_77183" data-name="Group 77183" transform="translate(-0.89 -0.218)">
    <path id="Path_96251" data-name="Path 96251" d="M19.642,119.993H2.842a1.952,1.952,0,0,1,0-3.9h16.8a1.952,1.952,0,0,1,0,3.9Zm0,11.831H2.842a1.952,1.952,0,0,1,0-3.9h16.8a1.952,1.952,0,0,1,0,3.9Zm-16.8,11.769h16.8a1.952,1.952,0,0,0,0-3.9H2.842a1.952,1.952,0,0,0,0,3.9Z" transform="translate(0 -102.625)" fill="#fcc048" fill-rule="evenodd"/>
    <path id="Path_96252" data-name="Path 96252" d="M378.679,29.531a1.952,1.952,0,0,1-1.843-2.594l8.846-25.409a1.952,1.952,0,0,1,3.668-.054l9.518,24.991a1.952,1.952,0,0,1-3.648,1.389L387.607,7.87l-7.085,20.351A1.955,1.955,0,0,1,378.679,29.531Z" transform="translate(-332.869 0)" fill="#d23f4f"/>
    <path id="Path_96253" data-name="Path 96253" d="M237.094,91.648h-.022L223.7,91.5a1.952,1.952,0,0,1-1.931-1.942l-.126-25.287a1.952,1.952,0,0,1,1.942-1.962h.01a1.952,1.952,0,0,1,1.952,1.942l.117,23.367,11.455.125a1.952,1.952,0,0,1-.022,3.9Z" transform="translate(-195.513 -54.993)" fill="#288fc3"/>
  </g>
</svg>
