<svg xmlns="http://www.w3.org/2000/svg" width="88.106" height="55.036" viewBox="0 0 88.106 55.036">
  <g id="Group_77256" data-name="Group 77256" transform="translate(-0.891 -0.218)">
    <path id="Path_96251" data-name="Path 96251" d="M26.216,121.361H3.526a2.636,2.636,0,0,1,0-5.271H26.214a2.636,2.636,0,0,1,0,5.271Zm0,15.979H3.526a2.636,2.636,0,0,1,0-5.271H26.214a2.636,2.636,0,0,1,0,5.271ZM3.526,153.235h22.69a2.636,2.636,0,0,0,0-5.271H3.526a2.636,2.636,0,0,0,0,5.271Z" transform="translate(0 -97.981)" fill="#fcc048" fill-rule="evenodd"/>
    <path id="Path_96252" data-name="Path 96252" d="M379.363,39.808a2.637,2.637,0,0,1-2.489-3.5L388.822,1.988a2.636,2.636,0,0,1,4.953-.073l12.854,33.753a2.636,2.636,0,0,1-4.927,1.876l-10.28-26.991-9.568,27.486A2.641,2.641,0,0,1,379.363,39.808Z" transform="translate(-317.806 0)" fill="#d23f4f"/>
    <path id="Path_96253" data-name="Path 96253" d="M242.512,101.933h-.029l-18.065-.2a2.637,2.637,0,0,1-2.608-2.623l-.17-34.153a2.637,2.637,0,0,1,2.623-2.65h.014a2.637,2.637,0,0,1,2.636,2.623l.157,31.559,15.471.168a2.637,2.637,0,0,1-.029,5.273Z" transform="translate(-186.665 -52.505)" fill="#288fc3"/>
  </g>
</svg>
